<?xml version="1.0" standalone="yes"?>

<svg version="1.1" viewBox="0.0 0.0 944.8818897637796 529.1338582677165" fill="none" stroke="none" stroke-linecap="square" stroke-miterlimit="10" xmlns="http://www.w3.org/2000/svg" xmlns:xlink="http://www.w3.org/1999/xlink"><clipPath id="ge9dd7ef42_0_0.0"><path d="m0 0l944.8819 0l0 529.13385l-944.8819 0l0 -529.13385z" clip-rule="nonzero"></path></clipPath><g clip-path="url(#ge9dd7ef42_0_0.0)"><path fill="#ffffff" d="m0 0l944.8819 0l0 529.13385l-944.8819 0z" fill-rule="nonzero"></path><path fill="#ffffff" d="m330.7054 7.2125983l282.9291 0l0 512.126l-282.9291 0z" fill-rule="nonzero"></path><path stroke="#666666" stroke-width="1.0" stroke-linejoin="round" stroke-linecap="butt" stroke-dasharray="1.0,3.0" d="m330.7054 7.2125983l282.9291 0l0 512.126l-282.9291 0z" fill-rule="nonzero"></path><path fill="#f1c232" d="m392.61417 15.999124l159.65353 0l0 158.96062l-159.65353 0z" fill-rule="nonzero"></path><path fill="#ffffff" d="m472.7222 118.41944l-6.0625 0l-24.96875 -38.34375l-0.25 0q0.5 6.75 0.5 12.375l0 25.96875l-4.90625 0l0 -45.6875l6.0 0l24.90625 38.1875l0.25 0q-0.0625 -0.84375 -0.28125 -5.421875q-0.21875 -4.578125 -0.15625 -6.546875l0 -26.21875l4.96875 0l0 45.6875zm38.34375 -12.15625q0 6.03125 -4.375 9.40625q-4.375 3.375 -11.875 3.375q-8.125 0 -12.5 -2.09375l0 -5.125q2.8125 1.1875 6.125 1.875q3.3125 0.6875 6.5625 0.6875q5.3125 0 8.0 -2.015625q2.6875 -2.015625 2.6875 -5.609375q0 -2.375 -0.953125 -3.890625q-0.953125 -1.515625 -3.1875 -2.796875q-2.234375 -1.28125 -6.796875 -2.90625q-6.375 -2.28125 -9.109375 -5.40625q-2.734375 -3.125 -2.734375 -8.15625q0 -5.28125 3.96875 -8.40625q3.96875 -3.125 10.5 -3.125q6.8125 0 12.53125 2.5l-1.65625 4.625q-5.65625 -2.375 -11.0 -2.375q-4.21875 0 -6.59375 1.8125q-2.375 1.8125 -2.375 5.03125q0 2.375 0.875 3.890625q0.875 1.515625 2.953125 2.78125q2.078125 1.265625 6.359375 2.796875q7.1875 2.5625 9.890625 5.5q2.703125 2.9375 2.703125 7.625z" fill-rule="nonzero"></path><path fill="#674ea7" d="m765.06036 348.88364l159.65356 0l0 158.96063l-159.65356 0z" fill-rule="nonzero"></path><path fill="#ffffff" d="m862.2465 451.30396l-5.3125 0l0 -21.5l-24.0625 0l0 21.5l-5.3125 0l0 -45.6875l5.3125 0l0 19.4375l24.0625 0l0 -19.4375l5.3125 0l0 45.6875z" fill-rule="nonzero"></path><path fill="#e69138" d="m20.167978 348.88364l159.65353 0l0 158.96063l-159.65353 0z" fill-rule="nonzero"></path><path fill="#ffffff" d="m91.80725 432.30396l0 19.0l-5.3125 0l0 -45.6875l12.53125 0q8.40625 0 12.421875 3.21875q4.015625 3.21875 4.015625 9.6875q0 9.0625 -9.1875 12.25l12.40625 20.53125l-6.28125 0l-11.0625 -19.0l-9.53125 0zm0 -4.5625l7.28125 0q5.625 0 8.25 -2.234375q2.625 -2.234375 2.625 -6.703125q0 -4.53125 -2.671875 -6.53125q-2.671875 -2.0 -8.578125 -2.0l-6.90625 0l0 17.46875z" fill-rule="nonzero"></path><path fill="#000000" fill-opacity="0.0" d="m472.44095 348.88364l0 -173.92126" fill-rule="nonzero"></path><path stroke="#595959" stroke-width="4.0" stroke-linejoin="round" stroke-linecap="butt" d="m472.44095 326.37054l0 -151.40817" fill-rule="evenodd"></path><path fill="#595959" stroke="#595959" stroke-width="4.0" stroke-linecap="butt" d="m472.44095 326.37054l-6.6611633 9.513123l6.6611633 9.513092l6.661133 -9.513092z" fill-rule="evenodd"></path><path fill="#000000" fill-opacity="0.0" d="m464.44095 291.39896l75.02359 0l0 37.29132l-75.02359 0z" fill-rule="nonzero"></path><path fill="#000000" d="m506.0387 321.76462l-4.828125 0l0 -13.21875l0.046875 -2.171875l0.078125 -2.375q-1.203125 1.203125 -1.671875 1.578125l-2.625 2.109375l-2.328125 -2.90625l7.359375 -5.859375l3.96875 0l0 22.84375z" fill-rule="nonzero"></path><path fill="#000000" fill-opacity="0.0" d="m464.44095 174.96326l75.02359 0l0 37.291336l-75.02359 0z" fill-rule="nonzero"></path><path fill="#000000" d="m506.0387 205.32892l-4.828125 0l0 -13.21875l0.046875 -2.171875l0.078125 -2.375q-1.203125 1.203125 -1.671875 1.578125l-2.625 2.109375l-2.328125 -2.90625l7.359375 -5.859375l3.96875 0l0 22.84375z" fill-rule="nonzero"></path><path fill="#000000" fill-opacity="0.0" d="m179.82152 428.36395l212.7874 0" fill-rule="nonzero"></path><path stroke="#595959" stroke-width="4.0" stroke-linejoin="round" stroke-linecap="butt" d="m179.82152 428.36395l212.7874 0" fill-rule="nonzero"></path><path fill="#000000" fill-opacity="0.0" d="m552.2677 428.36395l212.78741 0" fill-rule="nonzero"></path><path stroke="#595959" stroke-width="4.0" stroke-linejoin="round" stroke-linecap="butt" d="m552.2677 428.36395l212.78741 0" fill-rule="nonzero"></path><path fill="#000000" fill-opacity="0.0" d="m163.82152 391.0735l75.02362 0l0 37.29135l-75.02362 0z" fill-rule="nonzero"></path><path fill="#000000" d="m203.36458 397.12665l-0.640625 5.75l5.828125 -1.625l0.515625 3.9375l-5.3125 0.375l3.484375 4.640625l-3.546875 1.890625l-2.4375 -4.890625l-2.140625 4.859375l-3.6875 -1.859375l3.453125 -4.640625l-5.28125 -0.40625l0.609375 -3.90625l5.703125 1.625l-0.640625 -5.75l4.09375 0z" fill-rule="nonzero"></path><path fill="#000000" fill-opacity="0.0" d="m333.59055 391.0735l75.02362 0l0 37.29135l-75.02362 0z" fill-rule="nonzero"></path><path fill="#000000" d="m373.1336 397.12665l-0.640625 5.75l5.828125 -1.625l0.515625 3.9375l-5.3125 0.375l3.484375 4.640625l-3.546875 1.890625l-2.4375 -4.890625l-2.140625 4.859375l-3.6875 -1.859375l3.453125 -4.640625l-5.28125 -0.40625l0.609375 -3.90625l5.703125 1.625l-0.640625 -5.75l4.09375 0z" fill-rule="nonzero"></path><path fill="#000000" fill-opacity="0.0" d="m536.2677 391.0735l75.02362 0l0 37.29135l-75.02362 0z" fill-rule="nonzero"></path><path fill="#000000" d="m577.8655 421.43915l-4.828125 0l0 -13.21875l0.046875 -2.171875l0.078125 -2.375q-1.203125 1.203125 -1.671875 1.578125l-2.625 2.109375l-2.328125 -2.90625l7.359375 -5.859375l3.96875 0l0 22.84375z" fill-rule="nonzero"></path><path fill="#000000" fill-opacity="0.0" d="m706.03674 391.0735l75.02362 0l0 37.29135l-75.02362 0z" fill-rule="nonzero"></path><path fill="#000000" d="m747.6345 421.43915l-4.828125 0l0 -13.21875l0.046875 -2.171875l0.078125 -2.375q-1.203125 1.203125 -1.671875 1.578125l-2.625 2.109375l-2.328125 -2.90625l7.359375 -5.859375l3.96875 0l0 22.84375z" fill-rule="nonzero"></path><path fill="#f4cccc" d="m43.91601 126.55354l112.15747 0l0 111.65355l-112.15747 0z" fill-rule="nonzero"></path><path fill="#ffffff" d="m111.15099 196.78032l-3.7968674 0l-15.59375 -23.96875l-0.15625 0q0.3125 4.21875 0.3125 7.734375l0 16.234375l-3.078125 0l0 -28.5625l3.75 0l15.578117 23.875l0.15625 0q-0.046875 -0.53125 -0.1875 -3.390625q-0.125 -2.859375 -0.09375 -4.09375l0 -16.390625l3.109375 0l0 28.5625z" fill-rule="nonzero"></path><path fill="#000000" fill-opacity="0.0" d="m156.07349 182.38031l273.82678 192.69293" fill-rule="nonzero"></path><path stroke="#d9d9d9" stroke-width="4.0" stroke-linejoin="round" stroke-linecap="butt" stroke-dasharray="32.0,12.0" d="m156.07349 182.38031l273.82678 192.69293" fill-rule="nonzero"></path><path fill="#000000" fill-opacity="0.0" d="m137.46457 145.08661l75.02362 0l0 37.29135l-75.02362 0z" fill-rule="nonzero"></path><path fill="#cccccc" d="m177.00763 151.13979l-0.640625 5.75l5.828125 -1.625l0.515625 3.9375l-5.3125 0.375l3.484375 4.640625l-3.546875 1.890625l-2.4375 -4.890625l-2.140625 4.859375l-3.6875 -1.859375l3.453125 -4.640625l-5.28125 -0.40625l0.609375 -3.90625l5.703125 1.625l-0.640625 -5.75l4.09375 0z" fill-rule="nonzero"></path><path fill="#000000" fill-opacity="0.0" d="m352.61417 295.59317l75.02362 0l0 37.29135l-75.02362 0z" fill-rule="nonzero"></path><path fill="#cccccc" d="m394.2119 325.95883l-4.828125 0l0 -13.21875l0.046875 -2.171875l0.078125 -2.375q-1.203125 1.203125 -1.671875 1.578125l-2.625 2.109375l-2.328125 -2.90625l7.359375 -5.859375l3.96875 0l0 22.84375z" fill-rule="nonzero"></path><path fill="#000000" fill-opacity="0.0" d="m99.99475 348.88364l0 -110.67717" fill-rule="nonzero"></path><path stroke="#d9d9d9" stroke-width="4.0" stroke-linejoin="round" stroke-linecap="butt" stroke-dasharray="32.0,12.0" d="m99.99475 348.88364l0 -110.67717" fill-rule="nonzero"></path><path fill="#6aa84f" d="m392.61417 348.88364l159.65353 0l0 158.96063l-159.65353 0z" fill-rule="nonzero"></path><path fill="#ffffff" d="m457.98782 405.61646l12.90625 0q9.09375 0 13.15625 2.71875q4.0625 2.71875 4.0625 8.59375q0 4.0625 -2.265625 6.703125q-2.265625 2.640625 -6.609375 3.421875l0 0.3125q10.40625 1.78125 10.40625 10.9375q0 6.125 -4.140625 9.5625q-4.140625 3.4375 -11.578125 3.4375l-15.9375 0l0 -45.6875zm5.3125 19.5625l8.75 0q5.625 0 8.09375 -1.765625q2.46875 -1.765625 2.46875 -5.953125q0 -3.84375 -2.75 -5.546875q-2.75 -1.703125 -8.75 -1.703125l-7.8125 0l0 14.96875zm0 4.5l0 17.09375l9.53125 0q5.53125 0 8.328125 -2.140625q2.796875 -2.140625 2.796875 -6.703125q0 -4.25 -2.859375 -6.25q-2.859375 -2.0 -8.703125 -2.0l-9.09375 0z" fill-rule="nonzero"></path><path fill="#000000" fill-opacity="0.0" d="m91.99475 238.20735l75.02362 0l0 37.291336l-75.02362 0z" fill-rule="nonzero"></path><path fill="#cccccc" d="m131.53781 244.26051l-0.640625 5.75l5.828125 -1.625l0.515625 3.9375l-5.3125 0.375l3.484375 4.6406403l-3.546875 1.890625l-2.4375 -4.8906403l-2.140625 4.8593903l-3.6875 -1.859375l3.453125 -4.6406403l-5.28125 -0.40625l0.609375 -3.90625l5.703125 1.625l-0.640625 -5.75l4.09375 0z" fill-rule="nonzero"></path><path fill="#000000" fill-opacity="0.0" d="m91.99475 311.59317l75.02362 0l0 37.29135l-75.02362 0z" fill-rule="nonzero"></path><path fill="#cccccc" d="m131.53781 317.64633l-0.640625 5.75l5.828125 -1.625l0.515625 3.9375l-5.3125 0.375l3.484375 4.640625l-3.546875 1.890625l-2.4375 -4.890625l-2.140625 4.859375l-3.6875 -1.859375l3.453125 -4.640625l-5.28125 -0.40625l0.609375 -3.90625l5.703125 1.625l-0.640625 -5.75l4.09375 0z" fill-rule="nonzero"></path></g></svg>

