<?xml version="1.0" standalone="yes"?>

<svg version="1.1" viewBox="0.0 0.0 960.0 540.0" fill="none" stroke="none" stroke-linecap="square" stroke-miterlimit="10" xmlns="http://www.w3.org/2000/svg" xmlns:xlink="http://www.w3.org/1999/xlink"><clipPath id="p.0"><path d="m0 0l960.0 0l0 540.0l-960.0 0l0 -540.0z" clip-rule="nonzero"></path></clipPath><g clip-path="url(#p.0)"><path fill="#ffffff" d="m0 0l960.0 0l0 540.0l-960.0 0z" fill-rule="nonzero"></path><path fill="#6aa84f" d="m278.0 304.3071l162.20471 0l0 162.20471l-162.20471 0z" fill-rule="nonzero"></path><path fill="#ffffff" d="m344.64923 362.66196l12.90625 0q9.09375 0 13.15625 2.71875q4.0625 2.71875 4.0625 8.59375q0 4.0625 -2.265625 6.703125q-2.265625 2.640625 -6.609375 3.421875l0 0.3125q10.40625 1.78125 10.40625 10.9375q0 6.125 -4.140625 9.5625q-4.140625 3.4375 -11.578125 3.4375l-15.9375 0l0 -45.6875zm5.3125 19.5625l8.75 0q5.625 0 8.09375 -1.765625q2.46875 -1.765625 2.46875 -5.953125q0 -3.84375 -2.75 -5.546875q-2.75 -1.703125 -8.75 -1.703125l-7.8125 0l0 14.96875zm0 4.5l0 17.09375l9.53125 0q5.53125 0 8.328125 -2.140625q2.796875 -2.140625 2.796875 -6.703125q0 -4.25 -2.859375 -6.25q-2.859375 -2.0 -8.703125 -2.0l-9.09375 0z" fill-rule="nonzero"></path><path fill="#e69138" d="m36.204723 304.3071l162.20473 0l0 162.20471l-162.20473 0z" fill-rule="nonzero"></path><path fill="#ffffff" d="m109.11959 389.34946l0 19.0l-5.3125 0l0 -45.6875l12.53125 0q8.40625 0 12.421867 3.21875q4.015625 3.21875 4.015625 9.6875q0 9.0625 -9.187492 12.25l12.406242 20.53125l-6.28125 0l-11.062492 -19.0l-9.53125 0zm0 -4.5625l7.28125 0q5.625 0 8.25 -2.234375q2.625 -2.234375 2.625 -6.703125q0 -4.53125 -2.671875 -6.53125q-2.671875 -2.0 -8.578125 -2.0l-6.90625 0l0 17.46875z" fill-rule="nonzero"></path><path fill="#f1c232" d="m519.7953 304.3071l162.20471 0l0 162.20471l-162.20471 0z" fill-rule="nonzero"></path><path fill="#ffffff" d="m601.1789 408.34946l-6.0625 0l-24.96875 -38.34375l-0.25 0q0.5 6.75 0.5 12.375l0 25.96875l-4.90625 0l0 -45.6875l6.0 0l24.90625 38.1875l0.25 0q-0.0625 -0.84375 -0.28125 -5.421875q-0.21875 -4.578125 -0.15625 -6.546875l0 -26.21875l4.96875 0l0 45.6875zm38.34375 -12.15625q0 6.03125 -4.375 9.40625q-4.375 3.375 -11.875 3.375q-8.125 0 -12.5 -2.09375l0 -5.125q2.8125 1.1875 6.125 1.875q3.3125 0.6875 6.5625 0.6875q5.3125 0 8.0 -2.015625q2.6875 -2.015625 2.6875 -5.609375q0 -2.375 -0.953125 -3.890625q-0.953125 -1.515625 -3.1875 -2.796875q-2.234375 -1.28125 -6.796875 -2.90625q-6.375 -2.28125 -9.109375 -5.40625q-2.734375 -3.125 -2.734375 -8.15625q0 -5.28125 3.96875 -8.40625q3.96875 -3.125 10.5 -3.125q6.8125 0 12.53125 2.5l-1.65625 4.625q-5.65625 -2.375 -11.0 -2.375q-4.21875 0 -6.59375 1.8125q-2.375 1.8125 -2.375 5.03125q0 2.375 0.875 3.890625q0.875 1.515625 2.953125 2.78125q2.078125 1.265625 6.359375 2.796875q7.1875 2.5625 9.890625 5.5q2.703125 2.9375 2.703125 7.625z" fill-rule="nonzero"></path><path fill="#674ea7" d="m761.5906 304.3071l162.20471 0l0 162.20471l-162.20471 0z" fill-rule="nonzero"></path><path fill="#ffffff" d="m860.0523 408.34946l-5.3125 0l0 -21.5l-24.0625 0l0 21.5l-5.3125 0l0 -45.6875l5.3125 0l0 19.4375l24.0625 0l0 -19.4375l5.3125 0l0 45.6875z" fill-rule="nonzero"></path><path fill="#b7b7b7" d="m685.7953 32.0l162.20471 0l0 162.20473l-162.20471 0z" fill-rule="nonzero"></path><path fill="#ffffff" d="m781.64764 136.04236l-5.6875 -14.53125l-18.3125 0l-5.625 14.53125l-5.375 0l18.0625 -45.875l4.46875 0l17.96875 45.875l-5.5 0zm-7.34375 -19.3125l-5.3125 -14.15625q-1.03125 -2.6875 -2.125 -6.59375q-0.6875 3.0 -1.96875 6.59375l-5.375 14.15625l14.78125 0z" fill-rule="nonzero"></path><path fill="#a61c00" d="m112.0 32.0l162.20471 0l0 162.20473l-162.20471 0z" fill-rule="nonzero"></path><path fill="#ffffff" d="m210.9461 136.04236l-6.0625 0l-24.96875 -38.34375l-0.25 0q0.5 6.75 0.5 12.375l0 25.96875l-4.90625 0l0 -45.6875l6.0 0l24.90625 38.1875l0.25 0q-0.0625 -0.84375 -0.28125 -5.421875q-0.21875 -4.578125 -0.15625 -6.546875l0 -26.21875l4.96875 0l0 45.6875z" fill-rule="nonzero"></path><path fill="#000000" fill-opacity="0.0" d="m78.125984 194.20473l229.95276 0l0 48.283463l-229.95276 0z" fill-rule="nonzero"></path><path fill="#434343" d="m178.45589 226.88646l-2.265625 0l-9.359375 -14.375l-0.09375 0q0.1875 2.53125 0.1875 4.640625l0 9.734375l-1.84375 0l0 -17.140625l2.25 0l9.34375 14.328125l0.09375 0q-0.03125 -0.3125 -0.109375 -2.03125q-0.078125 -1.71875 -0.0625 -2.453125l0 -9.84375l1.859375 0l0 17.140625zm15.515625 -6.4375q0 3.140625 -1.59375 4.90625q-1.578125 1.765625 -4.359375 1.765625q-1.734375 0 -3.078125 -0.8125q-1.328125 -0.8125 -2.0625 -2.3125q-0.71875 -1.515625 -0.71875 -3.546875q0 -3.140625 1.5625 -4.890625q1.578125 -1.75 4.375 -1.75q2.6875 0 4.28125 1.796875q1.59375 1.78125 1.59375 4.84375zm-9.796875 0q0 2.46875 0.984375 3.765625q0.984375 1.28125 2.90625 1.28125q1.90625 0 2.890625 -1.28125q1.0 -1.296875 1.0 -3.765625q0 -2.453125 -1.0 -3.71875q-0.984375 -1.265625 -2.921875 -1.265625q-1.90625 0 -2.890625 1.25q-0.96875 1.25 -0.96875 3.734375zm21.949219 4.71875l-0.109375 0q-1.34375 1.953125 -4.03125 1.953125q-2.515625 0 -3.921875 -1.71875q-1.40625 -1.734375 -1.40625 -4.90625q0 -3.171875 1.40625 -4.921875q1.40625 -1.765625 3.921875 -1.765625q2.609375 0 4.0 1.890625l0.15625 0l-0.078125 -0.921875l-0.046875 -0.90625l0 -5.21875l1.9375 0l0 18.234375l-1.578125 0l-0.25 -1.71875zm-3.890625 0.328125q1.984375 0 2.875 -1.078125q0.90625 -1.09375 0.90625 -3.515625l0 -0.40625q0 -2.734375 -0.90625 -3.890625q-0.90625 -1.171875 -2.90625 -1.171875q-1.703125 0 -2.625 1.328125q-0.90625 1.328125 -0.90625 3.765625q0 2.453125 0.90625 3.71875q0.90625 1.25 2.65625 1.25zm15.269531 1.625q-2.84375 0 -4.5 -1.734375q-1.640625 -1.734375 -1.640625 -4.8125q0 -3.109375 1.53125 -4.9375q1.53125 -1.828125 4.109375 -1.828125q2.421875 0 3.828125 1.59375q1.40625 1.578125 1.40625 4.1875l0 1.21875l-8.859375 0q0.0625 2.265625 1.140625 3.4375q1.09375 1.171875 3.0625 1.171875q2.078125 0 4.09375 -0.859375l0 1.734375q-1.03125 0.4375 -1.953125 0.625q-0.90625 0.203125 -2.21875 0.203125zm-0.515625 -11.6875q-1.546875 0 -2.46875 1.015625q-0.921875 1.0 -1.09375 2.78125l6.71875 0q0 -1.84375 -0.828125 -2.8125q-0.8125 -0.984375 -2.328125 -0.984375z" fill-rule="nonzero"></path><path fill="#45818e" d="m398.89764 32.0l162.20471 0l0 162.20473l-162.20471 0z" fill-rule="nonzero"></path><path fill="#ffffff" d="m483.07812 112.10486l15.53125 0l0 22.21875q-3.625 1.15625 -7.375 1.75q-3.75 0.59375 -8.6875 0.59375q-10.375 0 -16.15625 -6.171875q-5.78125 -6.171875 -5.78125 -17.296875q0 -7.125 2.859375 -12.484375q2.859375 -5.359375 8.234375 -8.1875q5.375 -2.828125 12.59375 -2.828125q7.3125 0 13.625 2.6875l-2.0625 4.6875q-6.1875 -2.625 -11.90625 -2.625q-8.34375 0 -13.03125 4.96875q-4.6875 4.96875 -4.6875 13.78125q0 9.25 4.515625 14.03125q4.515625 4.78125 13.265625 4.78125q4.75 0 9.28125 -1.09375l0 -14.0625l-10.21875 0l0 -4.75z" fill-rule="nonzero"></path><path fill="#000000" fill-opacity="0.0" d="m365.02362 194.20473l229.95276 0l0 48.283463l-229.95276 0z" fill-rule="nonzero"></path><path fill="#434343" d="m441.45703 217.90208l5.828125 0l0 8.34375q-1.359375 0.421875 -2.765625 0.640625q-1.40625 0.234375 -3.265625 0.234375q-3.890625 0 -6.0625 -2.3125q-2.15625 -2.3125 -2.15625 -6.484375q0 -2.671875 1.0625 -4.6875q1.078125 -2.015625 3.09375 -3.0625q2.015625 -1.0625 4.71875 -1.0625q2.75 0 5.109375 1.0l-0.765625 1.765625q-2.328125 -0.984375 -4.46875 -0.984375q-3.125 0 -4.890625 1.859375q-1.75 1.859375 -1.75 5.171875q0 3.46875 1.6875 5.265625q1.703125 1.78125 4.984375 1.78125q1.78125 0 3.46875 -0.40625l0 -5.28125l-3.828125 0l0 -1.78125zm17.550781 8.984375l-0.390625 -1.828125l-0.09375 0q-0.96875 1.203125 -1.921875 1.640625q-0.953125 0.421875 -2.375 0.421875q-1.921875 0 -3.0 -0.984375q-1.078125 -0.984375 -1.078125 -2.796875q0 -3.890625 6.21875 -4.078125l2.171875 -0.078125l0 -0.796875q0 -1.515625 -0.65625 -2.234375q-0.640625 -0.71875 -2.0625 -0.71875q-1.609375 0 -3.640625 0.984375l-0.59375 -1.484375q0.953125 -0.515625 2.078125 -0.8125q1.125 -0.296875 2.265625 -0.296875q2.296875 0 3.40625 1.03125q1.109375 1.015625 1.109375 3.265625l0 8.765625l-1.4375 0zm-4.40625 -1.375q1.828125 0 2.859375 -0.984375q1.03125 -1.0 1.03125 -2.796875l0 -1.15625l-1.9375 0.078125q-2.328125 0.078125 -3.359375 0.71875q-1.015625 0.640625 -1.015625 1.984375q0 1.0625 0.640625 1.609375q0.640625 0.546875 1.78125 0.546875zm14.003906 0q0.515625 0 0.984375 -0.078125q0.484375 -0.078125 0.765625 -0.15625l0 1.484375q-0.3125 0.15625 -0.9375 0.25q-0.609375 0.109375 -1.09375 0.109375q-3.734375 0 -3.734375 -3.921875l0 -7.640625l-1.84375 0l0 -0.9375l1.84375 -0.8125l0.828125 -2.75l1.125 0l0 2.984375l3.71875 0l0 1.515625l-3.71875 0l0 7.546875q0 1.171875 0.546875 1.796875q0.546875 0.609375 1.515625 0.609375zm9.738281 1.609375q-2.84375 0 -4.5 -1.734375q-1.640625 -1.734375 -1.640625 -4.8125q0 -3.109375 1.53125 -4.9375q1.53125 -1.828125 4.109375 -1.828125q2.421875 0 3.828125 1.59375q1.40625 1.578125 1.40625 4.1875l0 1.21875l-8.859375 0q0.0625 2.265625 1.140625 3.4375q1.09375 1.171875 3.0625 1.171875q2.078125 0 4.09375 -0.859375l0 1.734375q-1.03125 0.4375 -1.953125 0.625q-0.90625 0.203125 -2.21875 0.203125zm-0.515625 -11.6875q-1.546875 0 -2.46875 1.015625q-0.921875 1.0 -1.09375 2.78125l6.71875 0q0 -1.84375 -0.828125 -2.8125q-0.8125 -0.984375 -2.328125 -0.984375zm19.042969 11.453125l-2.34375 -7.53125q-0.234375 -0.703125 -0.84375 -3.140625l-0.09375 0q-0.46875 2.046875 -0.8125 3.15625l-2.421875 7.515625l-2.25 0l-3.515625 -12.84375l2.046875 0q1.234375 4.84375 1.890625 7.375q0.65625 2.53125 0.75 3.40625l0.09375 0q0.125 -0.671875 0.40625 -1.734375q0.296875 -1.0625 0.5 -1.671875l2.359375 -7.375l2.109375 0l2.296875 7.375q0.65625 2.015625 0.890625 3.375l0.09375 0q0.046875 -0.421875 0.25 -1.296875q0.203125 -0.875 2.4375 -9.453125l2.015625 0l-3.546875 12.84375l-2.3125 0zm16.089844 0l-0.390625 -1.828125l-0.09375 0q-0.96875 1.203125 -1.921875 1.640625q-0.953125 0.421875 -2.375 0.421875q-1.921875 0 -3.0 -0.984375q-1.078125 -0.984375 -1.078125 -2.796875q0 -3.890625 6.21875 -4.078125l2.171875 -0.078125l0 -0.796875q0 -1.515625 -0.65625 -2.234375q-0.640625 -0.71875 -2.0625 -0.71875q-1.609375 0 -3.640625 0.984375l-0.59375 -1.484375q0.953125 -0.515625 2.078125 -0.8125q1.125 -0.296875 2.265625 -0.296875q2.296875 0 3.40625 1.03125q1.109375 1.015625 1.109375 3.265625l0 8.765625l-1.4375 0zm-4.40625 -1.375q1.828125 0 2.859375 -0.984375q1.03125 -1.0 1.03125 -2.796875l0 -1.15625l-1.9375 0.078125q-2.328125 0.078125 -3.359375 0.71875q-1.015625 0.640625 -1.015625 1.984375q0 1.0625 0.640625 1.609375q0.640625 0.546875 1.78125 0.546875zm7.8164062 -11.46875l2.078125 0l2.8125 7.328125q0.921875 2.5 1.15625 3.609375l0.09375 0q0.140625 -0.59375 0.625 -2.03125q0.5 -1.453125 3.1875 -8.90625l2.09375 0l-5.53125 14.625q-0.8125 2.171875 -1.90625 3.078125q-1.09375 0.90625 -2.6875 0.90625q-0.890625 0 -1.765625 -0.203125l0 -1.546875q0.640625 0.140625 1.4375 0.140625q2.015625 0 2.859375 -2.25l0.71875 -1.828125l-5.171875 -12.921875z" fill-rule="nonzero"></path><path fill="#000000" fill-opacity="0.0" d="m651.92126 194.20473l229.95276 0l0 48.283463l-229.95276 0z" fill-rule="nonzero"></path><path fill="#434343" d="m717.38007 226.88646l-2.125 -5.453125l-6.875 0l-2.109375 5.453125l-2.015625 0l6.78125 -17.203125l1.671875 0l6.734375 17.203125l-2.0625 0zm-2.75 -7.25l-2.0 -5.296875q-0.375 -1.015625 -0.796875 -2.484375q-0.25 1.125 -0.734375 2.484375l-2.015625 5.296875l5.546875 0zm12.859375 7.484375q-1.265625 0 -2.296875 -0.453125q-1.03125 -0.46875 -1.734375 -1.4375l-0.140625 0q0.140625 1.125 0.140625 2.140625l0 5.28125l-1.953125 0l0 -18.609375l1.578125 0l0.28125 1.75l0.09375 0q0.75 -1.046875 1.734375 -1.515625q1.0 -0.46875 2.296875 -0.46875q2.546875 0 3.9375 1.75q1.390625 1.734375 1.390625 4.890625q0 3.171875 -1.421875 4.921875q-1.40625 1.75 -3.90625 1.75zm-0.28125 -11.65625q-1.96875 0 -2.859375 1.09375q-0.875 1.078125 -0.890625 3.453125l0 0.4375q0 2.703125 0.890625 3.875q0.90625 1.171875 2.90625 1.171875q1.65625 0 2.59375 -1.34375q0.953125 -1.359375 0.953125 -3.71875q0 -2.40625 -0.953125 -3.6875q-0.9375 -1.28125 -2.640625 -1.28125zm14.988281 11.65625q-1.265625 0 -2.296875 -0.453125q-1.03125 -0.46875 -1.734375 -1.4375l-0.140625 0q0.140625 1.125 0.140625 2.140625l0 5.28125l-1.953125 0l0 -18.609375l1.578125 0l0.28125 1.75l0.09375 0q0.75 -1.046875 1.734375 -1.515625q1.0 -0.46875 2.296875 -0.46875q2.546875 0 3.9375 1.75q1.390625 1.734375 1.390625 4.890625q0 3.171875 -1.421875 4.921875q-1.40625 1.75 -3.90625 1.75zm-0.28125 -11.65625q-1.96875 0 -2.859375 1.09375q-0.875 1.078125 -0.890625 3.453125l0 0.4375q0 2.703125 0.890625 3.875q0.90625 1.171875 2.90625 1.171875q1.65625 0 2.59375 -1.34375q0.953125 -1.359375 0.953125 -3.71875q0 -2.40625 -0.953125 -3.6875q-0.9375 -1.28125 -2.640625 -1.28125zm10.957031 11.421875l-1.953125 0l0 -18.234375l1.953125 0l0 18.234375zm6.0703125 0l-1.953125 0l0 -12.84375l1.953125 0l0 12.84375zm-2.109375 -16.328125q0 -0.671875 0.328125 -0.96875q0.328125 -0.3125 0.8125 -0.3125q0.46875 0 0.8125 0.3125q0.34375 0.3125 0.34375 0.96875q0 0.65625 -0.34375 0.984375q-0.34375 0.3125 -0.8125 0.3125q-0.484375 0 -0.8125 -0.3125q-0.328125 -0.328125 -0.328125 -0.984375zm11.3671875 16.5625q-2.796875 0 -4.328125 -1.71875q-1.53125 -1.71875 -1.53125 -4.859375q0 -3.21875 1.546875 -4.96875q1.5625 -1.765625 4.4375 -1.765625q0.921875 0 1.84375 0.203125q0.9375 0.1875 1.453125 0.46875l-0.59375 1.640625q-0.640625 -0.25 -1.40625 -0.421875q-0.765625 -0.171875 -1.34375 -0.171875q-3.921875 0 -3.921875 5.0q0 2.359375 0.953125 3.625q0.96875 1.265625 2.84375 1.265625q1.59375 0 3.28125 -0.6875l0 1.71875q-1.28125 0.671875 -3.234375 0.671875zm14.191406 -0.234375l-0.390625 -1.828125l-0.09375 0q-0.96875 1.203125 -1.921875 1.640625q-0.953125 0.421875 -2.375 0.421875q-1.921875 0 -3.0 -0.984375q-1.078125 -0.984375 -1.078125 -2.796875q0 -3.890625 6.21875 -4.078125l2.171875 -0.078125l0 -0.796875q0 -1.515625 -0.65625 -2.234375q-0.640625 -0.71875 -2.0625 -0.71875q-1.609375 0 -3.640625 0.984375l-0.59375 -1.484375q0.953125 -0.515625 2.078125 -0.8125q1.125 -0.296875 2.265625 -0.296875q2.296875 0 3.40625 1.03125q1.109375 1.015625 1.109375 3.265625l0 8.765625l-1.4375 0zm-4.40625 -1.375q1.828125 0 2.859375 -0.984375q1.03125 -1.0 1.03125 -2.796875l0 -1.15625l-1.9375 0.078125q-2.328125 0.078125 -3.359375 0.71875q-1.015625 0.640625 -1.015625 1.984375q0 1.0625 0.640625 1.609375q0.640625 0.546875 1.78125 0.546875zm14.003906 0q0.515625 0 0.984375 -0.078125q0.484375 -0.078125 0.765625 -0.15625l0 1.484375q-0.3125 0.15625 -0.9375 0.25q-0.609375 0.109375 -1.09375 0.109375q-3.734375 0 -3.734375 -3.921875l0 -7.640625l-1.84375 0l0 -0.9375l1.84375 -0.8125l0.828125 -2.75l1.125 0l0 2.984375l3.71875 0l0 1.515625l-3.71875 0l0 7.546875q0 1.171875 0.546875 1.796875q0.546875 0.609375 1.515625 0.609375zm6.2695312 1.375l-1.953125 0l0 -12.84375l1.953125 0l0 12.84375zm-2.109375 -16.328125q0 -0.671875 0.328125 -0.96875q0.328125 -0.3125 0.8125 -0.3125q0.46875 0 0.8125 0.3125q0.34375 0.3125 0.34375 0.96875q0 0.65625 -0.34375 0.984375q-0.34375 0.3125 -0.8125 0.3125q-0.484375 0 -0.8125 -0.3125q-0.328125 -0.328125 -0.328125 -0.984375zm17.320312 9.890625q0 3.140625 -1.59375 4.90625q-1.578125 1.765625 -4.359375 1.765625q-1.734375 0 -3.078125 -0.8125q-1.328125 -0.8125 -2.0625 -2.3125q-0.71875 -1.515625 -0.71875 -3.546875q0 -3.140625 1.5625 -4.890625q1.578125 -1.75 4.375 -1.75q2.6875 0 4.28125 1.796875q1.59375 1.78125 1.59375 4.84375zm-9.796875 0q0 2.46875 0.984375 3.765625q0.984375 1.28125 2.90625 1.28125q1.90625 0 2.890625 -1.28125q1.0 -1.296875 1.0 -3.765625q0 -2.453125 -1.0 -3.71875q-0.984375 -1.265625 -2.921875 -1.265625q-1.90625 0 -2.890625 1.25q-0.96875 1.25 -0.96875 3.734375zm21.996094 6.4375l0 -8.3125q0 -1.5625 -0.71875 -2.328125q-0.71875 -0.78125 -2.234375 -0.78125q-2.015625 0 -2.953125 1.09375q-0.9375 1.078125 -0.9375 3.59375l0 6.734375l-1.953125 0l0 -12.84375l1.578125 0l0.328125 1.75l0.09375 0q0.59375 -0.9375 1.671875 -1.453125q1.078125 -0.53125 2.40625 -0.53125q2.3125 0 3.484375 1.125q1.171875 1.109375 1.171875 3.578125l0 8.375l-1.9375 0z" fill-rule="nonzero"></path><path fill="#000000" fill-opacity="0.0" d="m2.3307087 466.5118l229.95276 0l0 48.283478l-229.95276 0z" fill-rule="nonzero"></path><path fill="#434343" d="m83.7524 492.06854l0 7.125l-1.984375 0l0 -17.140625l4.703125 0q3.140625 0 4.640625 1.21875q1.515625 1.203125 1.515625 3.625q0 3.40625 -3.4375 4.59375l4.640625 7.703125l-2.34375 0l-4.15625 -7.125l-3.578125 0zm0 -1.71875l2.734375 0q2.109375 0 3.09375 -0.828125q0.984375 -0.84375 0.984375 -2.515625q0 -1.703125 -1.0 -2.453125q-1.0 -0.75 -3.21875 -0.75l-2.59375 0l0 6.546875zm23.648438 2.40625q0 3.140625 -1.59375 4.90625q-1.578125 1.765625 -4.359375 1.765625q-1.734375 0 -3.078125 -0.8125q-1.328125 -0.8125 -2.0625 -2.3125q-0.71875 -1.515625 -0.71875 -3.546875q0 -3.140625 1.5625 -4.890625q1.578125 -1.75 4.375 -1.75q2.6875 0 4.28125 1.796875q1.59375 1.78125 1.59375 4.84375zm-9.796875 0q0 2.46875 0.984375 3.765625q0.984375 1.28125 2.90625 1.28125q1.90625 0 2.890625 -1.28125q1.0 -1.296875 1.0 -3.765625q0 -2.453125 -1.0 -3.71875q-0.984375 -1.265625 -2.921875 -1.265625q-1.90625 0 -2.890625 1.25q-0.96875 1.25 -0.96875 3.734375zm15.027344 -6.40625l0 8.328125q0 1.578125 0.71875 2.359375q0.71875 0.765625 2.234375 0.765625q2.015625 0 2.9375 -1.09375q0.9375 -1.109375 0.9375 -3.609375l0 -6.75l1.953125 0l0 12.84375l-1.609375 0l-0.28125 -1.71875l-0.109375 0q-0.59375 0.9375 -1.65625 1.453125q-1.0625 0.5 -2.421875 0.5q-2.34375 0 -3.515625 -1.109375q-1.15625 -1.125 -1.15625 -3.5625l0 -8.40625l1.96875 0zm17.058586 11.46875q0.515625 0 0.984375 -0.078125q0.484375 -0.078125 0.765625 -0.15625l0 1.484375q-0.3125 0.15625 -0.9375 0.25q-0.609375 0.109375 -1.09375 0.109375q-3.7343674 0 -3.7343674 -3.921875l0 -7.640625l-1.84375 0l0 -0.9375l1.84375 -0.8125l0.828125 -2.75l1.125 0l0 2.984375l3.7187424 0l0 1.515625l-3.7187424 0l0 7.546875q0 1.171875 0.5468674 1.796875q0.546875 0.609375 1.515625 0.609375zm9.738281 1.609375q-2.84375 0 -4.5 -1.734375q-1.640625 -1.734375 -1.640625 -4.8125q0 -3.109375 1.53125 -4.9375q1.53125 -1.828125 4.109375 -1.828125q2.421875 0 3.828125 1.59375q1.40625 1.578125 1.40625 4.1875l0 1.21875l-8.859375 0q0.0625 2.265625 1.140625 3.4375q1.09375 1.171875 3.0625 1.171875q2.078125 0 4.09375 -0.859375l0 1.734375q-1.03125 0.4375 -1.953125 0.625q-0.90625 0.203125 -2.21875 0.203125zm-0.515625 -11.6875q-1.546875 0 -2.46875 1.015625q-0.921875 1.0 -1.09375 2.78125l6.71875 0q0 -1.84375 -0.828125 -2.8125q-0.8125 -0.984375 -2.328125 -0.984375zm14.417969 -1.625q0.859375 0 1.53125 0.140625l-0.265625 1.796875q-0.796875 -0.171875 -1.40625 -0.171875q-1.5625 0 -2.671875 1.265625q-1.09375 1.265625 -1.09375 3.15625l0 6.890625l-1.953125 0l0 -12.84375l1.609375 0l0.21875 2.375l0.09375 0q0.71875 -1.25 1.71875 -1.921875q1.015625 -0.6875 2.21875 -0.6875z" fill-rule="nonzero"></path><path fill="#000000" fill-opacity="0.0" d="m244.12599 466.5118l229.95274 0l0 48.283478l-229.95274 0z" fill-rule="nonzero"></path><path fill="#434343" d="m323.61017 482.05292l4.84375 0q3.40625 0 4.921875 1.03125q1.53125 1.015625 1.53125 3.21875q0 1.515625 -0.859375 2.515625q-0.84375 0.984375 -2.46875 1.28125l0 0.109375q3.90625 0.671875 3.90625 4.109375q0 2.296875 -1.5625 3.59375q-1.546875 1.28125 -4.34375 1.28125l-5.96875 0l0 -17.140625zm1.984375 7.34375l3.28125 0q2.109375 0 3.03125 -0.65625q0.9375 -0.671875 0.9375 -2.234375q0 -1.453125 -1.03125 -2.078125q-1.03125 -0.640625 -3.28125 -0.640625l-2.9375 0l0 5.609375zm0 1.6875l0 6.40625l3.578125 0q2.078125 0 3.125 -0.796875q1.046875 -0.8125 1.046875 -2.515625q0 -1.59375 -1.078125 -2.34375q-1.0625 -0.75 -3.25 -0.75l-3.421875 0zm19.128906 -4.96875q0.859375 0 1.53125 0.140625l-0.265625 1.796875q-0.796875 -0.171875 -1.40625 -0.171875q-1.5625 0 -2.671875 1.265625q-1.09375 1.265625 -1.09375 3.15625l0 6.890625l-1.953125 0l0 -12.84375l1.609375 0l0.21875 2.375l0.09375 0q0.71875 -1.25 1.71875 -1.921875q1.015625 -0.6875 2.21875 -0.6875zm15.03125 6.640625q0 3.140625 -1.59375 4.90625q-1.578125 1.765625 -4.359375 1.765625q-1.734375 0 -3.078125 -0.8125q-1.328125 -0.8125 -2.0625 -2.3125q-0.71875 -1.515625 -0.71875 -3.546875q0 -3.140625 1.5625 -4.890625q1.578125 -1.75 4.375 -1.75q2.6875 0 4.28125 1.796875q1.59375 1.78125 1.59375 4.84375zm-9.796875 0q0 2.46875 0.984375 3.765625q0.984375 1.28125 2.90625 1.28125q1.90625 0 2.890625 -1.28125q1.0 -1.296875 1.0 -3.765625q0 -2.453125 -1.0 -3.71875q-0.984375 -1.265625 -2.921875 -1.265625q-1.90625 0 -2.890625 1.25q-0.96875 1.25 -0.96875 3.734375zm15.121094 -0.140625q0.5 -0.71875 1.53125 -1.875l4.15625 -4.390625l2.3125 0l-5.203125 5.46875l5.5625 7.375l-2.359375 0l-4.53125 -6.078125l-1.46875 1.265625l0 4.8125l-1.921875 0l0 -18.234375l1.921875 0l0 9.671875q0 0.640625 -0.09375 1.984375l0.09375 0zm16.097656 6.8125q-2.84375 0 -4.5 -1.734375q-1.640625 -1.734375 -1.640625 -4.8125q0 -3.109375 1.53125 -4.9375q1.53125 -1.828125 4.109375 -1.828125q2.421875 0 3.828125 1.59375q1.40625 1.578125 1.40625 4.1875l0 1.21875l-8.859375 0q0.0625 2.265625 1.140625 3.4375q1.09375 1.171875 3.0625 1.171875q2.078125 0 4.09375 -0.859375l0 1.734375q-1.03125 0.4375 -1.953125 0.625q-0.90625 0.203125 -2.21875 0.203125zm-0.515625 -11.6875q-1.546875 0 -2.46875 1.015625q-0.921875 1.0 -1.09375 2.78125l6.71875 0q0 -1.84375 -0.828125 -2.8125q-0.8125 -0.984375 -2.328125 -0.984375zm14.417969 -1.625q0.859375 0 1.53125 0.140625l-0.265625 1.796875q-0.796875 -0.171875 -1.40625 -0.171875q-1.5625 0 -2.671875 1.265625q-1.09375 1.265625 -1.09375 3.15625l0 6.890625l-1.953125 0l0 -12.84375l1.609375 0l0.21875 2.375l0.09375 0q0.71875 -1.25 1.71875 -1.921875q1.015625 -0.6875 2.21875 -0.6875z" fill-rule="nonzero"></path><path fill="#000000" fill-opacity="0.0" d="m485.92126 466.5118l229.95276 0l0 48.283478l-229.95276 0z" fill-rule="nonzero"></path><path fill="#434343" d="m529.86053 499.19354l-2.265625 0l-9.359375 -14.375l-0.09375 0q0.1875 2.53125 0.1875 4.640625l0 9.734375l-1.84375 0l0 -17.140625l2.25 0l9.34375 14.328125l0.09375 0q-0.03125 -0.3125 -0.109375 -2.03125q-0.078125 -1.71875 -0.0625 -2.453125l0 -9.84375l1.859375 0l0 17.140625zm9.84375 0.234375q-2.84375 0 -4.5 -1.734375q-1.640625 -1.734375 -1.640625 -4.8125q0 -3.109375 1.53125 -4.9375q1.53125 -1.828125 4.109375 -1.828125q2.421875 0 3.828125 1.59375q1.40625 1.578125 1.40625 4.1875l0 1.21875l-8.859375 0q0.0625 2.265625 1.140625 3.4375q1.09375 1.171875 3.0625 1.171875q2.078125 0 4.09375 -0.859375l0 1.734375q-1.03125 0.4375 -1.953125 0.625q-0.90625 0.203125 -2.21875 0.203125zm-0.515625 -11.6875q-1.546875 0 -2.46875 1.015625q-0.921875 1.0 -1.09375 2.78125l6.71875 0q0 -1.84375 -0.828125 -2.8125q-0.8125 -0.984375 -2.328125 -0.984375zm12.714844 10.078125q0.515625 0 0.984375 -0.078125q0.484375 -0.078125 0.765625 -0.15625l0 1.484375q-0.3125 0.15625 -0.9375 0.25q-0.609375 0.109375 -1.09375 0.109375q-3.734375 0 -3.734375 -3.921875l0 -7.640625l-1.84375 0l0 -0.9375l1.84375 -0.8125l0.828125 -2.75l1.125 0l0 2.984375l3.71875 0l0 1.515625l-3.71875 0l0 7.546875q0 1.171875 0.546875 1.796875q0.546875 0.609375 1.515625 0.609375zm14.800781 1.375l-2.34375 -7.53125q-0.234375 -0.703125 -0.84375 -3.140625l-0.09375 0q-0.46875 2.046875 -0.8125 3.15625l-2.421875 7.515625l-2.25 0l-3.515625 -12.84375l2.046875 0q1.234375 4.84375 1.890625 7.375q0.65625 2.53125 0.75 3.40625l0.09375 0q0.125 -0.671875 0.40625 -1.734375q0.296875 -1.0625 0.5 -1.671875l2.359375 -7.375l2.109375 0l2.296875 7.375q0.65625 2.015625 0.890625 3.375l0.09375 0q0.046875 -0.421875 0.25 -1.296875q0.203125 -0.875 2.4375 -9.453125l2.015625 0l-3.546875 12.84375l-2.3125 0zm19.277344 -6.4375q0 3.140625 -1.59375 4.90625q-1.578125 1.765625 -4.359375 1.765625q-1.734375 0 -3.078125 -0.8125q-1.328125 -0.8125 -2.0625 -2.3125q-0.71875 -1.515625 -0.71875 -3.546875q0 -3.140625 1.5625 -4.890625q1.578125 -1.75 4.375 -1.75q2.6875 0 4.28125 1.796875q1.59375 1.78125 1.59375 4.84375zm-9.796875 0q0 2.46875 0.984375 3.765625q0.984375 1.28125 2.90625 1.28125q1.90625 0 2.890625 -1.28125q1.0 -1.296875 1.0 -3.765625q0 -2.453125 -1.0 -3.71875q-0.984375 -1.265625 -2.921875 -1.265625q-1.90625 0 -2.890625 1.25q-0.96875 1.25 -0.96875 3.734375zm19.058594 -6.640625q0.859375 0 1.53125 0.140625l-0.265625 1.796875q-0.796875 -0.171875 -1.40625 -0.171875q-1.5625 0 -2.671875 1.265625q-1.09375 1.265625 -1.09375 3.15625l0 6.890625l-1.953125 0l0 -12.84375l1.609375 0l0.21875 2.375l0.09375 0q0.71875 -1.25 1.71875 -1.921875q1.015625 -0.6875 2.21875 -0.6875zm5.859375 6.5q0.5 -0.71875 1.53125 -1.875l4.15625 -4.390625l2.3125 0l-5.203125 5.46875l5.5625 7.375l-2.359375 0l-4.53125 -6.078125l-1.46875 1.265625l0 4.8125l-1.921875 0l0 -18.234375l1.921875 0l0 9.671875q0 0.640625 -0.09375 1.984375l0.09375 0zm26.878906 2.015625q0 2.265625 -1.640625 3.53125q-1.640625 1.265625 -4.453125 1.265625q-3.046875 0 -4.6875 -0.78125l0 -1.921875q1.046875 0.4375 2.28125 0.703125q1.25 0.25 2.46875 0.25q2.0 0 3.0 -0.75q1.015625 -0.765625 1.015625 -2.109375q0 -0.890625 -0.359375 -1.453125q-0.359375 -0.578125 -1.203125 -1.046875q-0.828125 -0.484375 -2.546875 -1.09375q-2.390625 -0.859375 -3.421875 -2.03125q-1.015625 -1.171875 -1.015625 -3.0625q0 -1.96875 1.484375 -3.140625q1.484375 -1.171875 3.9375 -1.171875q2.5625 0 4.703125 0.9375l-0.625 1.734375q-2.125 -0.890625 -4.125 -0.890625q-1.578125 0 -2.46875 0.6875q-0.890625 0.671875 -0.890625 1.875q0 0.890625 0.328125 1.46875q0.328125 0.5625 1.109375 1.03125q0.78125 0.46875 2.375 1.046875q2.703125 0.96875 3.71875 2.078125q1.015625 1.09375 1.015625 2.84375zm8.625 4.796875q-2.84375 0 -4.5 -1.734375q-1.640625 -1.734375 -1.640625 -4.8125q0 -3.109375 1.53125 -4.9375q1.53125 -1.828125 4.109375 -1.828125q2.421875 0 3.828125 1.59375q1.40625 1.578125 1.40625 4.1875l0 1.21875l-8.859375 0q0.0625 2.265625 1.140625 3.4375q1.09375 1.171875 3.0625 1.171875q2.078125 0 4.09375 -0.859375l0 1.734375q-1.03125 0.4375 -1.953125 0.625q-0.90625 0.203125 -2.21875 0.203125zm-0.515625 -11.6875q-1.546875 0 -2.46875 1.015625q-0.921875 1.0 -1.09375 2.78125l6.71875 0q0 -1.84375 -0.828125 -2.8125q-0.8125 -0.984375 -2.328125 -0.984375zm14.417969 -1.625q0.859375 0 1.53125 0.140625l-0.265625 1.796875q-0.796875 -0.171875 -1.40625 -0.171875q-1.5625 0 -2.671875 1.265625q-1.09375 1.265625 -1.09375 3.15625l0 6.890625l-1.953125 0l0 -12.84375l1.609375 0l0.21875 2.375l0.09375 0q0.71875 -1.25 1.71875 -1.921875q1.015625 -0.6875 2.21875 -0.6875zm6.75 13.078125l-4.875 -12.84375l2.09375 0l2.765625 7.609375q0.9375 2.671875 1.09375 3.46875l0.09375 0q0.125 -0.609375 0.8125 -2.5625q0.6875 -1.953125 3.078125 -8.515625l2.09375 0l-4.875 12.84375l-2.28125 0zm14.6328125 0.234375q-2.84375 0 -4.5 -1.734375q-1.640625 -1.734375 -1.640625 -4.8125q0 -3.109375 1.53125 -4.9375q1.53125 -1.828125 4.109375 -1.828125q2.421875 0 3.828125 1.59375q1.40625 1.578125 1.40625 4.1875l0 1.21875l-8.859375 0q0.0625 2.265625 1.140625 3.4375q1.09375 1.171875 3.0625 1.171875q2.078125 0 4.09375 -0.859375l0 1.734375q-1.03125 0.4375 -1.953125 0.625q-0.90625 0.203125 -2.21875 0.203125zm-0.515625 -11.6875q-1.546875 0 -2.46875 1.015625q-0.921875 1.0 -1.09375 2.78125l6.71875 0q0 -1.84375 -0.828125 -2.8125q-0.8125 -0.984375 -2.328125 -0.984375zm14.417969 -1.625q0.859375 0 1.53125 0.140625l-0.265625 1.796875q-0.796875 -0.171875 -1.40625 -0.171875q-1.5625 0 -2.671875 1.265625q-1.09375 1.265625 -1.09375 3.15625l0 6.890625l-1.953125 0l0 -12.84375l1.609375 0l0.21875 2.375l0.09375 0q0.71875 -1.25 1.71875 -1.921875q1.015625 -0.6875 2.21875 -0.6875z" fill-rule="nonzero"></path><path fill="#000000" fill-opacity="0.0" d="m727.71655 466.5118l229.95276 0l0 48.283478l-229.95276 0z" fill-rule="nonzero"></path><path fill="#434343" d="m813.1402 499.19354l-1.984375 0l0 -8.0625l-9.03125 0l0 8.0625l-1.984375 0l0 -17.140625l1.984375 0l0 7.296875l9.03125 0l0 -7.296875l1.984375 0l0 17.140625zm12.316406 0l-0.390625 -1.828125l-0.09375 0q-0.96875 1.203125 -1.921875 1.640625q-0.953125 0.421875 -2.375 0.421875q-1.921875 0 -3.0 -0.984375q-1.078125 -0.984375 -1.078125 -2.796875q0 -3.890625 6.21875 -4.078125l2.171875 -0.078125l0 -0.796875q0 -1.515625 -0.65625 -2.234375q-0.640625 -0.71875 -2.0625 -0.71875q-1.609375 0 -3.640625 0.984375l-0.59375 -1.484375q0.953125 -0.515625 2.078125 -0.8125q1.125 -0.296875 2.265625 -0.296875q2.296875 0 3.40625 1.03125q1.109375 1.015625 1.109375 3.265625l0 8.765625l-1.4375 0zm-4.40625 -1.375q1.828125 0 2.859375 -0.984375q1.03125 -1.0 1.03125 -2.796875l0 -1.15625l-1.9375 0.078125q-2.328125 0.078125 -3.359375 0.71875q-1.015625 0.640625 -1.015625 1.984375q0 1.0625 0.640625 1.609375q0.640625 0.546875 1.78125 0.546875zm18.644531 1.375l0 -8.3125q0 -1.5625 -0.71875 -2.328125q-0.71875 -0.78125 -2.234375 -0.78125q-2.015625 0 -2.953125 1.09375q-0.9375 1.078125 -0.9375 3.59375l0 6.734375l-1.953125 0l0 -12.84375l1.578125 0l0.328125 1.75l0.09375 0q0.59375 -0.9375 1.671875 -1.453125q1.078125 -0.53125 2.40625 -0.53125q2.3125 0 3.484375 1.125q1.171875 1.109375 1.171875 3.578125l0 8.375l-1.9375 0zm14.683594 -1.71875l-0.109375 0q-1.34375 1.953125 -4.03125 1.953125q-2.515625 0 -3.921875 -1.71875q-1.40625 -1.734375 -1.40625 -4.90625q0 -3.171875 1.40625 -4.921875q1.40625 -1.765625 3.921875 -1.765625q2.609375 0 4.0 1.890625l0.15625 0l-0.078125 -0.921875l-0.046875 -0.90625l0 -5.21875l1.9375 0l0 18.234375l-1.578125 0l-0.25 -1.71875zm-3.890625 0.328125q1.984375 0 2.875 -1.078125q0.90625 -1.09375 0.90625 -3.515625l0 -0.40625q0 -2.734375 -0.90625 -3.890625q-0.90625 -1.171875 -2.90625 -1.171875q-1.703125 0 -2.625 1.328125q-0.90625 1.328125 -0.90625 3.765625q0 2.453125 0.90625 3.71875q0.90625 1.25 2.65625 1.25zm11.800781 1.390625l-1.953125 0l0 -18.234375l1.953125 0l0 18.234375zm9.5390625 0.234375q-2.84375 0 -4.5 -1.734375q-1.640625 -1.734375 -1.640625 -4.8125q0 -3.109375 1.53125 -4.9375q1.53125 -1.828125 4.109375 -1.828125q2.421875 0 3.828125 1.59375q1.40625 1.578125 1.40625 4.1875l0 1.21875l-8.859375 0q0.0625 2.265625 1.140625 3.4375q1.09375 1.171875 3.0625 1.171875q2.078125 0 4.09375 -0.859375l0 1.734375q-1.03125 0.4375 -1.953125 0.625q-0.90625 0.203125 -2.21875 0.203125zm-0.515625 -11.6875q-1.546875 0 -2.46875 1.015625q-0.921875 1.0 -1.09375 2.78125l6.71875 0q0 -1.84375 -0.828125 -2.8125q-0.8125 -0.984375 -2.328125 -0.984375zm14.417969 -1.625q0.859375 0 1.53125 0.140625l-0.265625 1.796875q-0.796875 -0.171875 -1.40625 -0.171875q-1.5625 0 -2.671875 1.265625q-1.09375 1.265625 -1.09375 3.15625l0 6.890625l-1.953125 0l0 -12.84375l1.609375 0l0.21875 2.375l0.09375 0q0.71875 -1.25 1.71875 -1.921875q1.015625 -0.6875 2.21875 -0.6875z" fill-rule="nonzero"></path><path fill="#000000" fill-opacity="0.0" d="m32.23622 257.9449l895.5276 0" fill-rule="nonzero"></path><path stroke="#434343" stroke-width="1.0" stroke-linejoin="round" stroke-linecap="butt" stroke-dasharray="4.0,3.0" d="m32.23622 257.9449l895.5276 0" fill-rule="nonzero"></path></g></svg>

