<?xml version="1.0" standalone="yes"?>

<svg version="1.1" viewBox="0.0 0.0 755.9055118110236 302.3622047244094" fill="none" stroke="none" stroke-linecap="square" stroke-miterlimit="10" xmlns="http://www.w3.org/2000/svg" xmlns:xlink="http://www.w3.org/1999/xlink"><clipPath id="gd9a099653_0_40.0"><path d="m0 0l755.9055 0l0 302.3622l-755.9055 0l0 -302.3622z" clip-rule="nonzero"></path></clipPath><g clip-path="url(#gd9a099653_0_40.0)"><path fill="#ffffff" d="m0 0l755.9055 0l0 302.3622l-755.9055 0z" fill-rule="nonzero"></path><path fill="#000000" fill-opacity="0.0" d="m140.39633 237.67717l112.59842 0" fill-rule="nonzero"></path><path stroke="#595959" stroke-width="1.0" stroke-linejoin="round" stroke-linecap="butt" d="m140.39633 237.67717l106.59842 0" fill-rule="evenodd"></path><path fill="#595959" stroke="#595959" stroke-width="1.0" stroke-linecap="butt" d="m246.99475 239.3289l4.538101 -1.6517334l-4.538101 -1.6517334z" fill-rule="evenodd"></path><path fill="#434343" d="m58.07349 214.32283l54.40694 0l18.285973 18.28598l0 28.422684l0 0l-54.406937 0l-18.285976 -18.285965l0 -28.422699z" fill-rule="nonzero"></path><path fill="#a64d79" d="m76.26016 257.779l-16.366604 -16.366608l0 -25.159225l49.09495 0z" fill-rule="nonzero"></path><path fill="#e69138" d="m112.47262 217.56844l16.3666 16.366608l0 25.159225l-49.094948 0z" fill-rule="nonzero"></path><path fill="#000000" fill-opacity="0.0" d="m51.88 214.32283l50.07874 0l0 32.755905l-50.07874 0z" fill-rule="nonzero"></path><path fill="#ffffff" d="m70.68785 230.44078q0 1.9375 -1.0625 2.96875q-1.046875 1.03125 -3.03125 1.03125l-2.171875 0l0 -7.859375l2.40625 0q1.828125 0 2.84375 1.015625q1.015625 1.015625 1.015625 2.84375zm-0.96875 0.03125q0 -1.53125 -0.765625 -2.3125q-0.765625 -0.78125 -2.296875 -0.78125l-1.3125 0l0 6.265625l1.109375 0q1.625 0 2.4375 -0.796875q0.828125 -0.796875 0.828125 -2.375zm7.409073 3.96875l-0.984375 -2.5l-3.140625 0l-0.96875 2.5l-0.921875 0l3.109375 -7.890625l0.765625 0l3.09375 7.890625l-0.953125 0zm-1.265625 -3.3125l-0.90625 -2.4375q-0.1875 -0.46875 -0.375 -1.140625q-0.109375 0.515625 -0.328125 1.140625l-0.921875 2.4375l2.53125 0zm5.493408 3.3125l-0.921875 0l0 -7.046875l-2.484375 0l0 -0.8125l5.890625 0l0 0.8125l-2.484375 0l0 7.046875zm8.410896 0l-0.984375 -2.5l-3.140625 0l-0.96875 2.5l-0.9218674 0l3.1093674 -7.890625l0.765625 0l3.09375 7.890625l-0.953125 0zm-1.265625 -3.3125l-0.90625 -2.4375q-0.1875 -0.46875 -0.375 -1.140625q-0.109375 0.515625 -0.328125 1.140625l-0.921875 2.4375l2.53125 0z" fill-rule="nonzero"></path><path fill="#000000" fill-opacity="0.0" d="m86.52106 228.27559l50.078735 0l0 32.755905l-50.078735 0z" fill-rule="nonzero"></path><path fill="#ffffff" d="m103.942 241.23729q-1.296875 0 -2.046875 0.875q-0.734375 0.859375 -0.734375 2.359375q0 1.53125 0.71875 2.375q0.71875 0.84375 2.0625 0.84375q0.8125 0 1.875 -0.296875l0 0.796875q-0.828125 0.3125 -2.015625 0.3125q-1.734375 0 -2.6875 -1.046875q-0.9375 -1.0625 -0.9375 -3.0q0 -1.21875 0.453125 -2.125q0.453125 -0.921875 1.3125 -1.40625q0.859375 -0.5 2.015625 -0.5q1.234375 0 2.15625 0.453125l-0.390625 0.78125q-0.890625 -0.421875 -1.78125 -0.421875zm6.847595 7.15625l-2.671875 -6.96875l-0.046875 0q0.078125 0.828125 0.078125 1.96875l0 5.0l-0.84375 0l0 -7.859375l1.375 0l2.484375 6.484375l0.046875 0l2.515625 -6.484375l1.359375 0l0 7.859375l-0.921875 0l0 -5.0625q0 -0.875 0.078125 -1.890625l-0.046875 0l-2.671875 6.953125l-0.734375 0zm12.402054 -4.0q0 1.9375 -1.0625 2.96875q-1.046875 1.03125 -3.03125 1.03125l-2.171875 0l0 -7.859375l2.40625 0q1.828125 0 2.84375 1.015625q1.015625 1.015625 1.015625 2.84375zm-0.96875 0.03125q0 -1.53125 -0.765625 -2.3125q-0.765625 -0.78125 -2.296875 -0.78125l-1.3125 0l0 6.265625l1.109375 0q1.625 0 2.4375 -0.796875q0.828125 -0.796875 0.828125 -2.375z" fill-rule="nonzero"></path><path fill="#a64d79" d="m401.8166 291.8971l-16.366608 -16.366608l0 -25.159225l49.09497 0z" fill-rule="nonzero"></path><path fill="#000000" fill-opacity="0.0" d="m377.43643 248.44095l50.078735 0l0 32.75589l-50.078735 0z" fill-rule="nonzero"></path><path fill="#ffffff" d="m396.2443 264.5589q0 1.9375 -1.0625 2.96875q-1.046875 1.03125 -3.03125 1.03125l-2.171875 0l0 -7.859375l2.40625 0q1.828125 0 2.84375 1.015625q1.015625 1.015625 1.015625 2.84375zm-0.96875 0.03125q0 -1.53125 -0.765625 -2.3125q-0.765625 -0.78125 -2.296875 -0.78125l-1.3125 0l0 6.265625l1.109375 0q1.625 0 2.4375 -0.796875q0.828125 -0.796875 0.828125 -2.375zm7.4090576 3.96875l-0.984375 -2.5l-3.140625 0l-0.96875 2.5l-0.921875 0l3.109375 -7.890625l0.765625 0l3.09375 7.890625l-0.953125 0zm-1.265625 -3.3125l-0.90625 -2.4375q-0.1875 -0.46875 -0.375 -1.140625q-0.109375 0.515625 -0.328125 1.140625l-0.921875 2.4375l2.53125 0zm5.493408 3.3125l-0.921875 0l0 -7.046875l-2.484375 0l0 -0.8125l5.890625 0l0 0.8125l-2.484375 0l0 7.046875zm8.410889 0l-0.984375 -2.5l-3.140625 0l-0.96875 2.5l-0.9218445 0l3.1093445 -7.890625l0.765625 0l3.09375 7.890625l-0.953125 0zm-1.265625 -3.3125l-0.90625 -2.4375q-0.1875 -0.46875 -0.375 -1.140625q-0.109375 0.515625 -0.328125 1.140625l-0.921875 2.4375l2.53125 0z" fill-rule="nonzero"></path><path fill="#e69138" d="m270.89993 132.58812l16.366608 16.366608l0 25.159225l-49.09497 0z" fill-rule="nonzero"></path><path fill="#000000" fill-opacity="0.0" d="m244.94836 143.29527l50.078735 0l0 32.755905l-50.078735 0z" fill-rule="nonzero"></path><path fill="#ffffff" d="m262.3693 156.25697q-1.296875 0 -2.046875 0.875q-0.734375 0.859375 -0.734375 2.359375q0 1.53125 0.71875 2.375q0.71875 0.84375 2.0625 0.84375q0.8125 0 1.875 -0.296875l0 0.796875q-0.828125 0.3125 -2.015625 0.3125q-1.734375 0 -2.6875 -1.046875q-0.9375 -1.0625 -0.9375 -3.0q0 -1.21875 0.453125 -2.125q0.453125 -0.921875 1.3125 -1.40625q0.859375 -0.5 2.015625 -0.5q1.234375 0 2.15625 0.453125l-0.390625 0.78125q-0.890625 -0.421875 -1.78125 -0.421875zm6.847595 7.15625l-2.671875 -6.96875l-0.046875 0q0.078125 0.828125 0.078125 1.96875l0 5.0l-0.84375 0l0 -7.859375l1.375 0l2.484375 6.484375l0.046875 0l2.515625 -6.484375l1.359375 0l0 7.859375l-0.921875 0l0 -5.0625q0 -0.875 0.078125 -1.890625l-0.046875 0l-2.671875 6.953125l-0.734375 0zm12.402069 -4.0q0 1.9375 -1.0625 2.96875q-1.046875 1.03125 -3.03125 1.03125l-2.171875 0l0 -7.859375l2.40625 0q1.828125 0 2.84375 1.015625q1.015625 1.015625 1.015625 2.84375zm-0.96875 0.03125q0 -1.53125 -0.765625 -2.3125q-0.765625 -0.78125 -2.296875 -0.78125l-1.3125 0l0 6.265625l1.109375 0q1.625 0 2.4375 -0.796875q0.828125 -0.796875 0.828125 -2.375z" fill-rule="nonzero"></path><path fill="#000000" fill-opacity="0.0" d="m298.7743 221.96063l0.44091797 -107.46457" fill-rule="nonzero"></path><path stroke="#f1c232" stroke-width="1.0" stroke-linejoin="round" stroke-linecap="butt" d="m298.7743 221.96063l0.41629028 -101.46462" fill-rule="evenodd"></path><path fill="#f1c232" stroke="#f1c232" stroke-width="1.0" stroke-linecap="butt" d="m300.84232 120.50279l-1.6330872 -4.544838l-1.6703491 4.5312805z" fill-rule="evenodd"></path><path fill="#f1c232" d="m252.99475 22.055119l92.44095 0l0 92.44095l-92.44095 0z" fill-rule="nonzero"></path><path fill="#ffffff" d="m299.43396 85.35558l-4.546875 0l-18.734375 -28.765621l-0.1875 0q0.375 5.0625 0.375 9.281246l0 19.484375l-3.671875 0l0 -34.26562l4.5 0l18.671875 28.640621l0.1875 0q-0.046875 -0.640625 -0.21875 -4.0625q-0.15625 -3.4375 -0.109375 -4.921875l0 -19.656246l3.734375 0l0 34.26562zm28.75 -9.125q0 4.53125 -3.28125 7.0625q-3.28125 2.53125 -8.90625 2.53125q-6.09375 0 -9.375 -1.578125l0 -3.84375q2.109375 0.890625 4.59375 1.40625q2.484375 0.515625 4.921875 0.515625q3.984375 0 6.0 -1.5q2.015625 -1.515625 2.015625 -4.21875q0 -1.78125 -0.71875 -2.90625q-0.703125 -1.140625 -2.390625 -2.09375q-1.671875 -0.96875 -5.09375 -2.1875q-4.78125 -1.71875 -6.828125 -4.0625q-2.046875 -2.3437462 -2.046875 -6.109371q0 -3.96875 2.96875 -6.3125q2.984375 -2.34375 7.875 -2.34375q5.109375 0 9.40625 1.875l-1.25 3.46875q-4.234375 -1.78125 -8.25 -1.78125q-3.15625 0 -4.9375 1.359375q-1.78125 1.359375 -1.78125 3.78125q0 1.78125 0.65625 2.921875q0.65625 1.125 2.203125 2.0781212q1.5625 0.953125 4.78125 2.09375q5.390625 1.921875 7.40625 4.125q2.03125 2.203125 2.03125 5.71875z" fill-rule="nonzero"></path><path fill="#674ea7" d="m496.47244 192.11285l92.44095 0l0 92.44095l-92.44095 0z" fill-rule="nonzero"></path><path fill="#ffffff" d="m555.7203 255.41333l-3.984375 0l0 -16.125l-18.046875 0l0 16.125l-3.984375 0l0 -34.265625l3.984375 0l0 14.578125l18.046875 0l0 -14.578125l3.984375 0l0 34.265625z" fill-rule="nonzero"></path><path fill="#000000" fill-opacity="0.0" d="m315.1496 238.33333l181.32285 0" fill-rule="nonzero"></path><path stroke="#674ea7" stroke-width="1.0" stroke-linejoin="round" stroke-linecap="butt" d="m315.1496 238.33333l175.32285 0" fill-rule="evenodd"></path><path fill="#674ea7" stroke="#674ea7" stroke-width="1.0" stroke-linecap="butt" d="m490.47244 239.98506l4.538086 -1.6517334l-4.538086 -1.6517334z" fill-rule="evenodd"></path><path fill="#6aa84f" d="m252.99475 191.4567l92.44095 0l0 92.44095l-92.44095 0z" fill-rule="nonzero"></path><path stroke="#6aa84f" stroke-width="2.0" stroke-linejoin="round" stroke-linecap="butt" d="m252.99475 191.4567l92.44095 0l0 92.44095l-92.44095 0z" fill-rule="nonzero"></path><path fill="#ffffff" d="m288.38318 220.49153l9.671875 0q6.828125 0 9.875 2.046875q3.046875 2.03125 3.046875 6.4375q0 3.046875 -1.703125 5.03125q-1.703125 1.96875 -4.953125 2.5625l0 0.234375q7.796875 1.328125 7.796875 8.203125q0 4.59375 -3.109375 7.171875q-3.09375 2.578125 -8.671875 2.578125l-11.953125 0l0 -34.265625zm3.984375 14.671875l6.5625 0q4.21875 0 6.0625 -1.328125q1.859375 -1.328125 1.859375 -4.46875q0 -2.875 -2.0625 -4.15625q-2.0625 -1.28125 -6.5625 -1.28125l-5.859375 0l0 11.234375zm0 3.375l0 12.8125l7.140625 0q4.15625 0 6.25 -1.59375q2.09375 -1.609375 2.09375 -5.03125q0 -3.1875 -2.140625 -4.6875q-2.140625 -1.5 -6.53125 -1.5l-6.8125 0z" fill-rule="nonzero"></path><path fill="#000000" fill-opacity="0.0" d="m38.120735 262.35977l112.59843 0l0 20.094482l-112.59843 0z" fill-rule="nonzero"></path><path fill="#434343" d="m72.01153 279.51453q-0.984375 0 -1.8125 -0.359375q-0.8125 -0.375 -1.375 -1.140625l-0.109375 0q0.109375 0.890625 0.109375 1.6875l0 4.1875l-1.53125 0l0 -14.734375l1.25 0l0.203125 1.390625l0.078125 0q0.59375 -0.828125 1.375 -1.203125q0.796875 -0.375 1.8125 -0.375q2.03125 0 3.125 1.390625q1.09375 1.375 1.09375 3.875q0 2.5 -1.125 3.890625q-1.109375 1.390625 -3.09375 1.390625zm-0.21875 -9.234375q-1.5625 0 -2.265625 0.875q-0.6875 0.859375 -0.703125 2.734375l0 0.34375q0 2.140625 0.71875 3.0625q0.71875 0.921875 2.28125 0.921875q1.328125 0 2.0625 -1.0625q0.75 -1.0625 0.75 -2.9375q0 -1.90625 -0.75 -2.921875q-0.734375 -1.015625 -2.09375 -1.015625zm13.182419 9.046875l-0.3125 -1.453125l-0.078125 0q-0.75 0.96875 -1.515625 1.3125q-0.75 0.328125 -1.890625 0.328125q-1.5 0 -2.359375 -0.78125q-0.859375 -0.78125 -0.859375 -2.21875q0 -3.078125 4.921875 -3.234375l1.734375 -0.046875l0 -0.625q0 -1.203125 -0.515625 -1.765625q-0.515625 -0.578125 -1.65625 -0.578125q-1.265625 0 -2.875 0.78125l-0.46875 -1.1875q0.75 -0.40625 1.640625 -0.625q0.90625 -0.234375 1.796875 -0.234375q1.828125 0 2.703125 0.8125q0.875 0.796875 0.875 2.578125l0 6.9375l-1.140625 0zm-3.484375 -1.078125q1.4375 0 2.25 -0.78125q0.828125 -0.796875 0.828125 -2.21875l0 -0.921875l-1.53125 0.0625q-1.84375 0.0625 -2.65625 0.578125q-0.8125 0.5 -0.8125 1.5625q0 0.84375 0.5 1.28125q0.515625 0.4375 1.421875 0.4375zm11.672592 1.265625q-2.21875 0 -3.4375 -1.359375q-1.203125 -1.359375 -1.203125 -3.84375q0 -2.5625 1.234375 -3.953125q1.234375 -1.390625 3.5 -1.390625q0.734375 0 1.46875 0.171875q0.734375 0.15625 1.15625 0.359375l-0.484375 1.3125q-0.5 -0.203125 -1.109375 -0.328125q-0.609375 -0.140625 -1.0625 -0.140625q-3.109375 0 -3.109375 3.953125q0 1.875 0.75 2.875q0.765625 1.0 2.25 1.0q1.28125 0 2.609375 -0.546875l0 1.359375q-1.015625 0.53125 -2.5625 0.53125zm6.3348846 -5.390625q0.390625 -0.5625 1.21875 -1.484375l3.28125 -3.484375l1.828125 0l-4.125 4.34375l4.40625 5.828125l-1.859375 0l-3.59375 -4.8125l-1.15625 1.015625l0 3.796875l-1.515625 0l0 -14.4375l1.515625 0l0 7.65625q0 0.515625 -0.078125 1.578125l0.078125 0zm12.558334 5.390625q-2.25 0 -3.5625 -1.375q-1.296875 -1.375 -1.296875 -3.8125q0 -2.453125 1.203125 -3.90625q1.21875 -1.453125 3.265625 -1.453125q1.90625 0 3.015625 1.265625q1.125 1.25 1.125 3.3125l0 0.96875l-7.015625 0q0.046875 1.796875 0.90625 2.734375q0.859375 0.921875 2.421875 0.921875q1.640625 0 3.25 -0.6875l0 1.375q-0.8125 0.34375 -1.546875 0.5q-0.734375 0.15625 -1.765625 0.15625zm-0.40625 -9.25q-1.234375 0 -1.96875 0.796875q-0.71875 0.796875 -0.84375 2.203125l5.3125 0q0 -1.453125 -0.65625 -2.21875q-0.640625 -0.78125 -1.84375 -0.78125zm9.873062 7.984375q0.40625 0 0.78125 -0.0625q0.390625 -0.0625 0.609375 -0.125l0 1.171875q-0.25 0.125 -0.75 0.203125q-0.484375 0.078125 -0.875 0.078125q-2.9375 0 -2.9375 -3.109375l0 -6.046875l-1.46875 0l0 -0.75l1.46875 -0.640625l0.640625 -2.171875l0.890625 0l0 2.359375l2.953125 0l0 1.203125l-2.953125 0l0 5.984375q0 0.921875 0.4375 1.421875q0.4375 0.484375 1.203125 0.484375z" fill-rule="nonzero"></path><path fill="#ffe599" d="m412.17502 45.346893l0 0c0 -7.6380043 14.1188965 -13.829832 31.53543 -13.829832c17.416534 0 31.53543 6.191828 31.53543 13.829832l0 55.319336c0 7.638008 -14.1188965 13.829834 -31.53543 13.829834c-17.416534 0 -31.53543 -6.191826 -31.53543 -13.829834z" fill-rule="nonzero"></path><path fill="#000000" fill-opacity="0.0" d="m475.24588 45.346893l0 0c0 7.638008 -14.1188965 13.829834 -31.53543 13.829834c-17.416534 0 -31.53543 -6.191826 -31.53543 -13.829834" fill-rule="nonzero"></path><path fill="#000000" fill-opacity="0.0" d="m412.17502 45.346893l0 0c0 -7.6380043 14.1188965 -13.829832 31.53543 -13.829832c17.416534 0 31.53543 6.191828 31.53543 13.829832l0 55.319336c0 7.638008 -14.1188965 13.829834 -31.53543 13.829834c-17.416534 0 -31.53543 -6.191826 -31.53543 -13.829834z" fill-rule="nonzero"></path><path stroke="#f1c232" stroke-width="1.0" stroke-linejoin="round" stroke-linecap="butt" d="m475.24588 45.346893l0 0c0 7.638008 -14.1188965 13.829834 -31.53543 13.829834c-17.416534 0 -31.53543 -6.191826 -31.53543 -13.829834" fill-rule="nonzero"></path><path stroke="#f1c232" stroke-width="1.0" stroke-linejoin="round" stroke-linecap="butt" d="m412.17502 45.346893l0 0c0 -7.6380043 14.1188965 -13.829832 31.53543 -13.829832c17.416534 0 31.53543 6.191828 31.53543 13.829832l0 55.319336c0 7.638008 -14.1188965 13.829834 -31.53543 13.829834c-17.416534 0 -31.53543 -6.191826 -31.53543 -13.829834z" fill-rule="nonzero"></path><path fill="#000000" fill-opacity="0.0" d="m345.50836 90.26509l66.42517 0" fill-rule="nonzero"></path><path stroke="#f1c232" stroke-width="1.0" stroke-linejoin="round" stroke-linecap="butt" d="m351.13666 90.26509l60.796906 0" fill-rule="evenodd"></path><path stroke="#f1c232" stroke-width="1.0" stroke-linecap="butt" d="m351.13666 90.26509l-2.378296 -1.6652832l-2.3782654 1.6652832l2.3782654 1.6652908z" fill-rule="evenodd"></path><path fill="#000000" fill-opacity="0.0" d="m588.9134 238.33333l33.921265 0" fill-rule="nonzero"></path><path stroke="#b7b7b7" stroke-width="1.0" stroke-linejoin="round" stroke-linecap="butt" d="m588.9134 238.33333l27.921265 0" fill-rule="evenodd"></path><path fill="#b7b7b7" stroke="#b7b7b7" stroke-width="1.0" stroke-linecap="butt" d="m616.83466 239.98506l4.538086 -1.6517334l-4.538086 -1.6517334z" fill-rule="evenodd"></path><path fill="#cccccc" d="m622.83466 190.79527l92.44092 0l0 92.44093l-92.44092 0z" fill-rule="nonzero"></path><path fill="#ffffff" d="m680.1176 254.09575l-4.265625 -10.90625l-13.734375 0l-4.21875 10.90625l-4.03125 0l13.546875 -34.40625l3.359375 0l13.46875 34.40625l-4.125 0zm-5.5 -14.484375l-3.984375 -10.625q-0.78125 -2.015625 -1.59375 -4.9375q-0.515625 2.25 -1.484375 4.9375l-4.03125 10.625l11.09375 0z" fill-rule="nonzero"></path><path fill="#000000" fill-opacity="0.0" d="m417.72964 70.514435l53.921265 0l0 24.566933l-53.921265 0z" fill-rule="nonzero"></path><path fill="#f1c232" d="m433.20078 89.717896l0 -13.59375l4.6875 0q1.578125 0 2.421875 0.1875q1.15625 0.265625 1.984375 0.96875q1.078125 0.921875 1.609375 2.34375q0.53125 1.40625 0.53125 3.21875q0 1.546875 -0.359375 2.75q-0.359375 1.1875 -0.921875 1.984375q-0.5625 0.78125 -1.234375 1.234375q-0.671875 0.4375 -1.625 0.671875q-0.953125 0.234375 -2.1875 0.234375l-4.90625 0zm1.796875 -1.609375l2.90625 0q1.34375 0 2.109375 -0.25q0.765625 -0.25 1.21875 -0.703125q0.640625 -0.640625 1.0 -1.71875q0.359375 -1.078125 0.359375 -2.625q0 -2.125 -0.703125 -3.265625q-0.703125 -1.15625 -1.703125 -1.546875q-0.71875 -0.28125 -2.328125 -0.28125l-2.859375 0l0 10.390625zm11.597961 1.609375l0 -13.59375l5.109375 0q1.546875 0 2.484375 0.40625q0.953125 0.40625 1.484375 1.265625q0.53125 0.859375 0.53125 1.796875q0 0.875 -0.46875 1.65625q-0.46875 0.765625 -1.4375 1.234375q1.234375 0.359375 1.890625 1.234375q0.671875 0.875 0.671875 2.0625q0 0.953125 -0.40625 1.78125q-0.390625 0.8125 -0.984375 1.265625q-0.59375 0.4375 -1.5 0.671875q-0.890625 0.21875 -2.1875 0.21875l-5.1875 0zm1.796875 -7.890625l2.9375 0q1.203125 0 1.71875 -0.15625q0.6875 -0.203125 1.03125 -0.671875q0.359375 -0.46875 0.359375 -1.1875q0 -0.671875 -0.328125 -1.1875q-0.328125 -0.515625 -0.9375 -0.703125q-0.59375 -0.203125 -2.0625 -0.203125l-2.71875 0l0 4.109375zm0 6.28125l3.390625 0q0.875 0 1.21875 -0.0625q0.625 -0.109375 1.046875 -0.359375q0.421875 -0.265625 0.6875 -0.765625q0.265625 -0.5 0.265625 -1.140625q0 -0.765625 -0.390625 -1.328125q-0.390625 -0.5625 -1.078125 -0.78125q-0.6875 -0.234375 -1.984375 -0.234375l-3.15625 0l0 4.671875z" fill-rule="nonzero"></path></g></svg>

