<?xml version="1.0" standalone="yes"?>

<svg version="1.1" viewBox="0.0 0.0 960.0 377.9527559055118" fill="none" stroke="none" stroke-linecap="square" stroke-miterlimit="10" xmlns="http://www.w3.org/2000/svg" xmlns:xlink="http://www.w3.org/1999/xlink"><clipPath id="gd93e062c5_0_130.0"><path d="m0 0l960.0 0l0 377.95276l-960.0 0l0 -377.95276z" clip-rule="nonzero"></path></clipPath><g clip-path="url(#gd93e062c5_0_130.0)"><path fill="#ffffff" d="m0 0l960.0 0l0 377.95276l-960.0 0z" fill-rule="nonzero"></path><path fill="#45818e" d="m293.8622 6.2362204l93.921265 0l0 93.92126l-93.921265 0z" fill-rule="nonzero"></path><path fill="#ffffff" d="m342.74667 52.628098l9.703125 0l0 13.890625q-2.265625 0.71875 -4.609375 1.09375q-2.34375 0.375 -5.421875 0.375q-6.484375 0 -10.109375 -3.859375q-3.609375 -3.859375 -3.609375 -10.8125q0 -4.453125 1.78125 -7.796875q1.796875 -3.359375 5.15625 -5.125q3.359375 -1.765625 7.875 -1.765625q4.5625 0 8.515625 1.6875l-1.296875 2.921875q-3.859375 -1.640625 -7.4375 -1.640625q-5.21875 0 -8.15625 3.109375q-2.921875 3.109375 -2.921875 8.609375q0 5.78125 2.828125 8.78125q2.828125 2.984375 8.296875 2.984375q2.96875 0 5.796875 -0.6875l0 -8.796875l-6.390625 0l0 -2.96875z" fill-rule="nonzero"></path><path fill="#e69138" d="m564.2139 6.2362204l93.921265 0l0 93.92126l-93.921265 0z" fill-rule="nonzero"></path><path fill="#ffffff" d="m606.0613 55.721848l0 11.875l-3.328125 0l0 -28.5625l7.84375 0q5.25 0 7.75 2.015625q2.515625 2.015625 2.515625 6.0625q0 5.65625 -5.734375 7.65625l7.75 12.828125l-3.921875 0l-6.921875 -11.875l-5.953125 0zm0 -2.859375l4.546875 0q3.515625 0 5.15625 -1.390625q1.640625 -1.390625 1.640625 -4.1875q0 -2.828125 -1.671875 -4.078125q-1.671875 -1.25 -5.359375 -1.25l-4.3125 0l0 10.90625z" fill-rule="nonzero"></path><path fill="#000000" fill-opacity="0.0" d="m340.82416 100.15748l0 271.84253" fill-rule="nonzero"></path><path stroke="#595959" stroke-width="1.0" stroke-linejoin="round" stroke-linecap="butt" d="m340.82416 100.15748l0 271.84253" fill-rule="nonzero"></path><path fill="#000000" fill-opacity="0.0" d="m611.17584 100.15748l0 273.29135" fill-rule="nonzero"></path><path stroke="#595959" stroke-width="1.0" stroke-linejoin="round" stroke-linecap="butt" d="m611.17584 100.15748l0 273.29135" fill-rule="nonzero"></path><path fill="#000000" fill-opacity="0.0" d="m342.3504 144.25197l268.9134 0" fill-rule="nonzero"></path><path stroke="#a61c00" stroke-width="1.0" stroke-linejoin="round" stroke-linecap="butt" d="m342.3504 144.25197l262.9134 0" fill-rule="evenodd"></path><path fill="#a61c00" stroke="#a61c00" stroke-width="1.0" stroke-linecap="butt" d="m605.2638 145.9037l4.538086 -1.6517334l-4.538086 -1.6517334z" fill-rule="evenodd"></path><path fill="#000000" fill-opacity="0.0" d="m64.94909 112.67999l216.0 0l0 28.220474l-216.0 0z" fill-rule="nonzero"></path><path fill="#a61c00" d="m82.777214 133.71022l-0.375 -1.328125l-0.15625 0q-0.453125 0.71875 -1.296875 1.125q-0.828125 0.390625 -1.890625 0.390625q-1.828125 0 -2.765625 -0.96875q-0.921875 -0.984375 -0.921875 -2.828125l0 -6.7656174l2.84375 0l0 6.0624924q0 1.125 0.390625 1.6875q0.40625 0.5625 1.265625 0.5625q1.1875 0 1.71875 -0.796875q0.53125 -0.796875 0.53125 -2.640625l0 -4.8749924l2.828125 0l0 10.374992l-2.171875 0zm10.620758 0.1875q-1.828125 0 -2.875 -1.328125l-0.140625 0q0.140625 1.296875 0.140625 1.5l0 4.203125l-2.828125 0l0 -14.937492l2.296875 0l0.40625 1.34375l0.125 0q1.0 -1.53125 2.9375 -1.53125q1.84375 0 2.875 1.421875q1.046875 1.40625 1.046875 3.9374924q0 1.65625 -0.484375 2.890625q-0.484375 1.21875 -1.390625 1.859375q-0.90625 0.640625 -2.109375 0.640625zm-0.84375 -8.484367q-1.046875 0 -1.53125 0.640625q-0.484375 0.640625 -0.5 2.1249924l0 0.3125q0 1.671875 0.5 2.390625q0.5 0.71875 1.578125 0.71875q1.890625 0 1.890625 -3.125q0 -1.5312424 -0.46875 -2.2968674q-0.46875 -0.765625 -1.46875 -0.765625zm9.774658 8.296867l-2.828125 0l0 -14.437492l2.828125 0l0 14.437492zm2.7403107 -13.046867q0 -1.390625 1.546875 -1.390625q1.53125 0 1.53125 1.390625q0 0.65625 -0.390625 1.03125q-0.375 0.359375 -1.140625 0.359375q-1.546875 0 -1.546875 -1.390625zm2.953125 13.046867l-2.828125 0l0 -10.374992l2.828125 0l0 10.374992zm12.443436 0l-2.828125 0l0 -6.0624924q0 -1.125 -0.40625 -1.671875q-0.390625 -0.5625 -1.265625 -0.5625q-1.1875 0 -1.71875 0.796875q-0.53125 0.78125 -0.53125 2.6249924l0 4.875l-2.828125 0l0 -10.374992l2.15625 0l0.390625 1.328125l0.15625 0q0.46875 -0.75 1.296875 -1.125q0.828125 -0.390625 1.890625 -0.390625q1.8125 0 2.75 0.984375q0.9375 0.96875 0.9375 2.8125l0 6.7656174zm5.402008 -5.640625l1.234375 -1.5781174l2.9062576 -3.15625l3.1875 0l-4.125 4.5l4.375 5.8749924l-3.265625 0l-2.9843826 -4.203125l-1.21875 0.96875l0 3.234375l-2.828125 0l0 -14.437492l2.828125 0l0 6.4375l-0.140625 2.3593674l0.03125 0zm22.977821 5.640625l-2.828125 0l0 -6.0624924q0 -1.125 -0.375 -1.671875q-0.375 -0.5625 -1.171875 -0.5625q-1.09375 0 -1.59375 0.796875q-0.484375 0.796875 -0.484375 2.6249924l0 4.875l-2.828125 0l0 -10.374992l2.15625 0l0.390625 1.328125l0.15625 0q0.421875 -0.71875 1.203125 -1.109375q0.78125 -0.40625 1.8125 -0.40625q2.328125 0 3.15625 1.515625l0.25 0q0.40625 -0.71875 1.21875 -1.109375q0.8125 -0.40625 1.84375 -0.40625q1.75 0 2.65625 0.90625q0.90625 0.890625 0.90625 2.890625l0 6.7656174l-2.828125 0l0 -6.0624924q0 -1.125 -0.390625 -1.671875q-0.375 -0.5625 -1.171875 -0.5625q-1.046875 0 -1.5625 0.75q-0.515625 0.734375 -0.515625 2.3437424l0 5.203125zm13.334824 -8.546867q-0.90625 0 -1.421875 0.578125q-0.5 0.5625 -0.578125 1.609375l3.96875 0q-0.015625 -1.046875 -0.546875 -1.609375q-0.515625 -0.578125 -1.421875 -0.578125zm0.390625 8.734367q-2.5 0 -3.90625 -1.375q-1.40625 -1.390625 -1.40625 -3.921875q0 -2.6093674 1.296875 -4.0312424q1.296875 -1.421875 3.609375 -1.421875q2.1875 0 3.40625 1.25q1.234375 1.25 1.234375 3.453125l0 1.3749924l-6.6875 0q0.046875 1.203125 0.71875 1.890625q0.671875 0.671875 1.875 0.671875q0.9375 0 1.765625 -0.1875q0.84375 -0.203125 1.75 -0.625l0 2.1875q-0.75 0.375 -1.59375 0.546875q-0.84375 0.1875 -2.0625 0.1875zm13.569366 -3.265625q0 1.59375 -1.109375 2.4375q-1.109375 0.828125 -3.3125 0.828125q-1.140625 0 -1.9375 -0.15625q-0.796875 -0.15625 -1.484375 -0.453125l0 -2.328125q0.78125 0.359375 1.765625 0.609375q1.0 0.25 1.75 0.25q1.53125 0 1.53125 -0.890625q0 -0.328125 -0.203125 -0.53125q-0.203125 -0.21875 -0.703125 -0.46875q-0.5 -0.265625 -1.328125 -0.625q-1.203125 -0.5 -1.765625 -0.921875q-0.5625 -0.43749237 -0.8125 -0.9843674q-0.25 -0.546875 -0.25 -1.359375q0 -1.390625 1.0625 -2.140625q1.078125 -0.75 3.046875 -0.75q1.875 0 3.640625 0.8125l-0.859375 2.046875q-0.765625 -0.34375 -1.453125 -0.546875q-0.671875 -0.21875 -1.375 -0.21875q-1.25 0 -1.25 0.671875q0 0.390625 0.390625 0.671875q0.40625 0.265625 1.765625 0.8125q1.21875 0.5 1.78125 0.9218674q0.578125 0.421875 0.84375 0.984375q0.265625 0.5625 0.265625 1.328125zm9.273468 0q0 1.59375 -1.109375 2.4375q-1.109375 0.828125 -3.3125 0.828125q-1.140625 0 -1.9375 -0.15625q-0.796875 -0.15625 -1.484375 -0.453125l0 -2.328125q0.78125 0.359375 1.765625 0.609375q1.0 0.25 1.75 0.25q1.53125 0 1.53125 -0.890625q0 -0.328125 -0.203125 -0.53125q-0.203125 -0.21875 -0.703125 -0.46875q-0.5 -0.265625 -1.328125 -0.625q-1.203125 -0.5 -1.765625 -0.921875q-0.5625 -0.43749237 -0.8125 -0.9843674q-0.25 -0.546875 -0.25 -1.359375q0 -1.390625 1.0625 -2.140625q1.078125 -0.75 3.046875 -0.75q1.875 0 3.640625 0.8125l-0.859375 2.046875q-0.765625 -0.34375 -1.453125 -0.546875q-0.671875 -0.21875 -1.375 -0.21875q-1.25 0 -1.25 0.671875q0 0.390625 0.390625 0.671875q0.40625 0.265625 1.765625 0.8125q1.21875 0.5 1.78125 0.9218674q0.578125 0.421875 0.84375 0.984375q0.265625 0.5625 0.265625 1.328125zm8.632843 3.078125l-0.546875 -1.40625l-0.078125 0q-0.71875 0.890625 -1.484375 1.25q-0.75 0.34375 -1.953125 0.34375q-1.5 0 -2.359375 -0.84375q-0.859375 -0.859375 -0.859375 -2.4375q0 -1.65625 1.15625 -2.4375q1.15625 -0.7812424 3.484375 -0.8749924l1.796875 -0.046875l0 -0.453125q0 -1.578125 -1.609375 -1.578125q-1.25 0 -2.921875 0.75l-0.9375 -1.921875q1.78125 -0.921875 3.96875 -0.921875q2.09375 0 3.203125 0.90625q1.109375 0.90625 1.109375 2.765625l0 6.9062424l-1.96875 0zm-0.84375 -4.8125l-1.09375 0.046875q-1.234375 0.03125 -1.84375 0.4375q-0.59375 0.40625 -0.59375 1.25q0 1.1875 1.375 1.1875q0.984375 0 1.5625 -0.5625q0.59375 -0.5625 0.59375 -1.5l0 -0.859375zm14.549698 -5.5624924l0 1.4375l-1.625 0.421875q0.4375 0.6875 0.4375 1.5625q0 1.6718674 -1.171875 2.6093674q-1.15625 0.921875 -3.21875 0.921875l-0.515625 -0.03125l-0.40625 -0.046875q-0.4375 0.34375 -0.4375 0.75q0 0.609375 1.546875 0.609375l1.765625 0q1.703125 0 2.59375 0.734375q0.90625 0.734375 0.90625 2.15625q0 1.8125 -1.515625 2.8125q-1.515625 1.0 -4.359375 1.0q-2.171875 0 -3.3125 -0.765625q-1.140625 -0.75 -1.140625 -2.109375q0 -0.9375 0.578125 -1.578125q0.578125 -0.625 1.71875 -0.890625q-0.4375 -0.1875 -0.765625 -0.609375q-0.328125 -0.421875 -0.328125 -0.890625q0 -0.59375 0.34375 -0.984375q0.34375 -0.40625 1.0 -0.78125q-0.8125 -0.34375 -1.296875 -1.125q-0.484375 -0.7812424 -0.484375 -1.8437424q0 -1.703125 1.109375 -2.625q1.109375 -0.921875 3.15625 -0.921875q0.4375 0 1.03125 0.078125q0.59375 0.078125 0.765625 0.109375l3.625 0zm-8.015625 11.843742q0 0.578125 0.5625 0.90625q0.5625 0.34375 1.578125 0.34375q1.515625 0 2.375 -0.421875q0.875 -0.40625 0.875 -1.140625q0 -0.578125 -0.515625 -0.8125q-0.515625 -0.21875 -1.578125 -0.21875l-1.46875 0q-0.78125 0 -1.3125 0.359375q-0.515625 0.375 -0.515625 0.984375zm1.03125 -8.453117q0 0.859375 0.390625 1.3437424q0.390625 0.484375 1.171875 0.484375q0.796875 0 1.171875 -0.484375q0.375 -0.48436737 0.375 -1.3437424q0 -1.859375 -1.546875 -1.859375q-1.5625 0 -1.5625 1.859375zm12.789688 -1.5625q-0.90625 0 -1.421875 0.578125q-0.5 0.5625 -0.578125 1.609375l3.96875 0q-0.015625 -1.046875 -0.546875 -1.609375q-0.515625 -0.578125 -1.421875 -0.578125zm0.390625 8.734367q-2.5 0 -3.90625 -1.375q-1.40625 -1.390625 -1.40625 -3.921875q0 -2.6093674 1.296875 -4.0312424q1.296875 -1.421875 3.609375 -1.421875q2.1875 0 3.40625 1.25q1.234375 1.25 1.234375 3.453125l0 1.3749924l-6.6875 0q0.046875 1.203125 0.71875 1.890625q0.671875 0.671875 1.875 0.671875q0.9375 0 1.765625 -0.1875q0.84375 -0.203125 1.75 -0.625l0 2.1875q-0.75 0.375 -1.59375 0.546875q-0.84375 0.1875 -2.0625 0.1875z" fill-rule="nonzero"></path><path fill="#000000" fill-opacity="0.0" d="m67.43916 203.04274l215.99998 0l0 28.220474l-215.99998 0z" fill-rule="nonzero"></path><path fill="#666666" d="m80.68916 215.81235l-1.765625 0l0 6.140625l-1.0625 0l0 -6.140625l-1.234375 0l0 -0.46875l1.234375 -0.390625l0 -0.375q0 -2.578125 2.25 -2.578125q0.546875 0 1.296875 0.234375l-0.28125 0.84375q-0.609375 -0.203125 -1.03125 -0.203125q-0.609375 0 -0.890625 0.40625q-0.28125 0.390625 -0.28125 1.265625l0 0.453125l1.765625 0l0 0.8125zm2.4383392 6.140625l-1.046875 0l0 -6.953125l1.046875 0l0 6.953125zm-1.140625 -8.84375q0 -0.359375 0.171875 -0.53125q0.1875 -0.171875 0.453125 -0.171875q0.25 0 0.421875 0.171875q0.1875 0.171875 0.1875 0.53125q0 0.359375 -0.1875 0.53125q-0.171875 0.171875 -0.421875 0.171875q-0.265625 0 -0.453125 -0.171875q-0.171875 -0.171875 -0.171875 -0.53125zm6.6367035 1.765625q0.453125 0 0.828125 0.0625l-0.140625 0.984375q-0.4375 -0.09375 -0.765625 -0.09375q-0.84375 0 -1.453125 0.6875q-0.59375 0.6875 -0.59375 1.703125l0 3.734375l-1.046875 0l0 -6.953125l0.859375 0l0.125 1.28125l0.046875 0q0.390625 -0.671875 0.9375 -1.03125q0.546875 -0.375 1.203125 -0.375zm6.7530823 5.1875q0 0.96875 -0.734375 1.5q-0.71875 0.515625 -2.03125 0.515625q-1.375 0 -2.15625 -0.4375l0 -0.96875q0.5 0.25 1.078125 0.390625q0.578125 0.140625 1.109375 0.140625q0.828125 0 1.265625 -0.25q0.453125 -0.265625 0.453125 -0.8125q0 -0.40625 -0.359375 -0.6875q-0.34375 -0.296875 -1.375 -0.6875q-0.96875 -0.359375 -1.375 -0.625q-0.40625 -0.28125 -0.609375 -0.625q-0.203125 -0.34375 -0.203125 -0.8125q0 -0.84375 0.6875 -1.328125q0.703125 -0.5 1.90625 -0.5q1.125 0 2.1875 0.453125l-0.375 0.859375q-1.046875 -0.4375 -1.890625 -0.4375q-0.75 0 -1.140625 0.234375q-0.375 0.234375 -0.375 0.65625q0 0.265625 0.140625 0.46875q0.15625 0.203125 0.46875 0.375q0.3125 0.171875 1.21875 0.515625q1.234375 0.453125 1.671875 0.90625q0.4375 0.453125 0.4375 1.15625zm4.1082 1.140625q0.28125 0 0.546875 -0.03125q0.265625 -0.046875 0.40625 -0.09375l0 0.8125q-0.171875 0.078125 -0.5 0.125q-0.328125 0.0625 -0.59375 0.0625q-2.03125 0 -2.03125 -2.125l0 -4.140625l-0.984375 0l0 -0.5l0.984375 -0.4375l0.453125 -1.484375l0.609375 0l0 1.609375l2.015625 0l0 0.8125l-2.015625 0l0 4.09375q0 0.625 0.296875 0.96875q0.296875 0.328125 0.8125 0.328125zm9.104889 -6.328125q0.453125 0 0.828125 0.0625l-0.140625 0.984375q-0.4375 -0.09375 -0.765625 -0.09375q-0.84375 0 -1.453125 0.6875q-0.59375 0.6875 -0.59375 1.703125l0 3.734375l-1.046875 0l0 -6.953125l0.859375 0l0.125 1.28125l0.046875 0q0.390625 -0.671875 0.9375 -1.03125q0.546875 -0.375 1.203125 -0.375zm5.2062073 7.203125q-1.546875 0 -2.4375 -0.9375q-0.890625 -0.9375 -0.890625 -2.609375q0 -1.6875 0.828125 -2.671875q0.828125 -0.984375 2.21875 -0.984375q1.3125 0 2.0625 0.859375q0.765625 0.859375 0.765625 2.265625l0 0.671875l-4.78125 0q0.03125 1.21875 0.609375 1.859375q0.59375 0.625 1.65625 0.625q1.125 0 2.21875 -0.46875l0 0.9375q-0.5625 0.25 -1.0625 0.34375q-0.484375 0.109375 -1.1875 0.109375zm-0.296875 -6.328125q-0.828125 0 -1.328125 0.546875q-0.5 0.546875 -0.59375 1.515625l3.640625 0q0 -1.0 -0.453125 -1.53125q-0.4375 -0.53125 -1.265625 -0.53125zm7.6025543 6.328125q-1.5 0 -2.328125 -0.921875q-0.828125 -0.9375 -0.828125 -2.640625q0 -1.75 0.828125 -2.6875q0.84375 -0.953125 2.40625 -0.953125q0.5 0 1.0 0.109375q0.5 0.09375 0.78125 0.25l-0.3125 0.890625q-0.359375 -0.140625 -0.765625 -0.234375q-0.40625 -0.09375 -0.734375 -0.09375q-2.109375 0 -2.109375 2.703125q0 1.28125 0.515625 1.96875q0.515625 0.6875 1.53125 0.6875q0.859375 0 1.78125 -0.375l0 0.9375q-0.703125 0.359375 -1.765625 0.359375zm6.5170593 0q-1.546875 0 -2.4375 -0.9375q-0.890625 -0.9375 -0.890625 -2.609375q0 -1.6875 0.828125 -2.671875q0.828125 -0.984375 2.21875 -0.984375q1.3125 0 2.0625 0.859375q0.765625 0.859375 0.765625 2.265625l0 0.671875l-4.78125 0q0.03125 1.21875 0.609375 1.859375q0.59375 0.625 1.65625 0.625q1.125 0 2.21875 -0.46875l0 0.9375q-0.5625 0.25 -1.0625 0.34375q-0.484375 0.109375 -1.1875 0.109375zm-0.296875 -6.328125q-0.828125 0 -1.328125 0.546875q-0.5 0.546875 -0.59375 1.515625l3.640625 0q0 -1.0 -0.453125 -1.53125q-0.4375 -0.53125 -1.265625 -0.53125zm5.8838043 6.203125l-1.046875 0l0 -6.953125l1.046875 0l0 6.953125zm-1.140625 -8.84375q0 -0.359375 0.171875 -0.53125q0.1875 -0.171875 0.453125 -0.171875q0.25 0 0.421875 0.171875q0.1875 0.171875 0.1875 0.53125q0 0.359375 -0.1875 0.53125q-0.171875 0.171875 -0.421875 0.171875q-0.265625 0 -0.453125 -0.171875q-0.171875 -0.171875 -0.171875 -0.53125zm4.9804535 8.84375l-2.640625 -6.953125l1.125 0l1.5 4.125q0.515625 1.4375 0.59375 1.875l0.0625 0q0.0625 -0.328125 0.4375 -1.390625q0.375 -1.0625 1.671875 -4.609375l1.125 0l-2.640625 6.953125l-1.234375 0zm8.098953 0.125q-1.546875 0 -2.4375 -0.9375q-0.890625 -0.9375 -0.890625 -2.609375q0 -1.6875 0.828125 -2.671875q0.828125 -0.984375 2.21875 -0.984375q1.3125 0 2.0625 0.859375q0.765625 0.859375 0.765625 2.265625l0 0.671875l-4.78125 0q0.03125 1.21875 0.609375 1.859375q0.59375 0.625 1.65625 0.625q1.125 0 2.21875 -0.46875l0 0.9375q-0.5625 0.25 -1.0625 0.34375q-0.484375 0.109375 -1.1875 0.109375zm-0.296875 -6.328125q-0.828125 0 -1.328125 0.546875q-0.5 0.546875 -0.59375 1.515625l3.640625 0q0 -1.0 -0.453125 -1.53125q-0.4375 -0.53125 -1.265625 -0.53125zm13.970993 6.203125l-1.28125 -4.078125q-0.109375 -0.375 -0.4375 -1.703125l-0.0625 0q-0.25 1.109375 -0.4375 1.71875l-1.3125 4.0625l-1.21875 0l-1.90625 -6.953125l1.109375 0q0.671875 2.625 1.015625 4.0q0.359375 1.359375 0.40625 1.828125l0.0625 0q0.0625 -0.359375 0.21875 -0.921875q0.15625 -0.578125 0.265625 -0.921875l1.28125 -3.984375l1.140625 0l1.25 3.984375q0.359375 1.09375 0.484375 1.84375l0.046875 0q0.03125 -0.234375 0.140625 -0.703125q0.109375 -0.484375 1.3125 -5.125l1.09375 0l-1.921875 6.953125l-1.25 0zm5.74205 0l-1.046875 0l0 -6.953125l1.046875 0l0 6.953125zm-1.140625 -8.84375q0 -0.359375 0.171875 -0.53125q0.1875 -0.171875 0.453125 -0.171875q0.25 0 0.421875 0.171875q0.1875 0.171875 0.1875 0.53125q0 0.359375 -0.1875 0.53125q-0.171875 0.171875 -0.421875 0.171875q-0.265625 0 -0.453125 -0.171875q-0.171875 -0.171875 -0.171875 -0.53125zm8.2148285 8.84375l0 -4.5q0 -0.84375 -0.390625 -1.265625q-0.375 -0.421875 -1.203125 -0.421875q-1.09375 0 -1.609375 0.59375q-0.5 0.578125 -0.5 1.9375l0 3.65625l-1.046875 0l0 -6.953125l0.84375 0l0.171875 0.953125l0.0625 0q0.3125 -0.515625 0.890625 -0.796875q0.59375 -0.28125 1.3125 -0.28125q1.25 0 1.890625 0.609375q0.640625 0.59375 0.640625 1.9375l0 4.53125l-1.0625 0zm8.16478 -0.9375l-0.0625 0q-0.734375 1.0625 -2.1875 1.0625q-1.359375 0 -2.125 -0.921875q-0.75 -0.9375 -0.75 -2.65625q0 -1.734375 0.75 -2.671875q0.765625 -0.953125 2.125 -0.953125q1.421875 0 2.171875 1.015625l0.078125 0l-0.03125 -0.5l-0.03125 -0.484375l0 -2.828125l1.046875 0l0 9.875l-0.84375 0l-0.140625 -0.9375zm-2.109375 0.1875q1.078125 0 1.5625 -0.59375q0.484375 -0.59375 0.484375 -1.890625l0 -0.21875q0 -1.484375 -0.5 -2.109375q-0.484375 -0.640625 -1.5625 -0.640625q-0.921875 0 -1.421875 0.71875q-0.484375 0.71875 -0.484375 2.03125q0 1.34375 0.484375 2.03125q0.484375 0.671875 1.4375 0.671875zm11.542389 -2.734375q0 1.703125 -0.859375 2.65625q-0.859375 0.953125 -2.375 0.953125q-0.921875 0 -1.65625 -0.4375q-0.71875 -0.4375 -1.109375 -1.25q-0.390625 -0.828125 -0.390625 -1.921875q0 -1.703125 0.84375 -2.640625q0.859375 -0.953125 2.359375 -0.953125q1.46875 0 2.328125 0.96875q0.859375 0.96875 0.859375 2.625zm-5.296875 0q0 1.328125 0.53125 2.03125q0.53125 0.703125 1.5625 0.703125q1.03125 0 1.5625 -0.6875q0.546875 -0.703125 0.546875 -2.046875q0 -1.328125 -0.546875 -2.015625q-0.53125 -0.6875 -1.578125 -0.6875q-1.03125 0 -1.5625 0.6875q-0.515625 0.671875 -0.515625 2.015625zm13.018997 3.484375l-1.28125 -4.078125q-0.109375 -0.375 -0.4375 -1.703125l-0.0625 0q-0.25 1.109375 -0.4375 1.71875l-1.3125 4.0625l-1.21875 0l-1.90625 -6.953125l1.109375 0q0.671875 2.625 1.015625 4.0q0.359375 1.359375 0.40625 1.828125l0.0625 0q0.0625 -0.359375 0.21875 -0.921875q0.15625 -0.578125 0.265625 -0.921875l1.28125 -3.984375l1.140625 0l1.25 3.984375q0.359375 1.09375 0.484375 1.84375l0.046875 0q0.03125 -0.234375 0.140625 -0.703125q0.109375 -0.484375 1.3125 -5.125l1.09375 0l-1.921875 6.953125l-1.25 0z" fill-rule="nonzero"></path><path fill="#000000" fill-opacity="0.0" d="m65.3802 301.16656l216.00002 0l0 28.22049l-216.00002 0z" fill-rule="nonzero"></path><path fill="#666666" d="m79.98958 318.1862q0 0.96875 -0.734375 1.5q-0.71875 0.515625 -2.03125 0.515625q-1.375 0 -2.15625 -0.4375l0 -0.96875q0.5 0.25 1.078125 0.390625q0.578125 0.140625 1.109375 0.140625q0.828125 0 1.265625 -0.25q0.453125 -0.265625 0.453125 -0.8125q0 -0.40625 -0.359375 -0.6875q-0.34375 -0.296875 -1.375 -0.6875q-0.96875 -0.359375 -1.375 -0.625q-0.40625 -0.28125 -0.609375 -0.625q-0.203125 -0.34375 -0.203125 -0.8125q0 -0.84375 0.6875 -1.328125q0.703125 -0.5 1.90625 -0.5q1.125 0 2.1875 0.453125l-0.375 0.859375q-1.046875 -0.4375 -1.890625 -0.4375q-0.75 0 -1.140625 0.234375q-0.375 0.234375 -0.375 0.65625q0 0.265625 0.140625 0.46875q0.15625 0.203125 0.46875 0.375q0.3125 0.171875 1.21875 0.515625q1.234375 0.453125 1.671875 0.90625q0.4375 0.453125 0.4375 1.15625zm4.811325 2.015625q-1.546875 0 -2.4375 -0.9375q-0.890625 -0.9375 -0.890625 -2.609375q0 -1.6875 0.828125 -2.671875q0.828125 -0.984375 2.21875 -0.984375q1.3125 0 2.0625 0.859375q0.765625 0.859375 0.765625 2.265625l0 0.671875l-4.78125 0q0.03125 1.21875 0.609375 1.859375q0.59375 0.625 1.65625 0.625q1.125 0 2.21875 -0.46875l0 0.9375q-0.5625 0.25 -1.0625 0.34375q-0.484375 0.109375 -1.1875 0.109375zm-0.296875 -6.328125q-0.828125 0 -1.328125 0.546875q-0.5 0.546875 -0.59375 1.515625l3.640625 0q0 -1.0 -0.453125 -1.53125q-0.4375 -0.53125 -1.265625 -0.53125zm7.6025543 6.328125q-1.5 0 -2.328125 -0.921875q-0.828125 -0.9375 -0.828125 -2.640625q0 -1.75 0.828125 -2.6875q0.84375 -0.953125 2.40625 -0.953125q0.5 0 1.0 0.109375q0.5 0.09375 0.78125 0.25l-0.3125 0.890625q-0.359375 -0.140625 -0.765625 -0.234375q-0.40625 -0.09375 -0.734375 -0.09375q-2.109375 0 -2.109375 2.703125q0 1.28125 0.515625 1.96875q0.515625 0.6875 1.53125 0.6875q0.859375 0 1.78125 -0.375l0 0.9375q-0.703125 0.359375 -1.765625 0.359375zm9.579559 -3.609375q0 1.703125 -0.859375 2.65625q-0.859375 0.953125 -2.375 0.953125q-0.921875 0 -1.65625 -0.4375q-0.71875 -0.4375 -1.109375 -1.25q-0.390625 -0.828125 -0.390625 -1.921875q0 -1.703125 0.84375 -2.640625q0.859375 -0.953125 2.359375 -0.953125q1.46875 0 2.328125 0.96875q0.859375 0.96875 0.859375 2.625zm-5.296875 0q0 1.328125 0.53125 2.03125q0.53125 0.703125 1.5625 0.703125q1.03125 0 1.5625 -0.6875q0.546875 -0.703125 0.546875 -2.046875q0 -1.328125 -0.546875 -2.015625q-0.53125 -0.6875 -1.578125 -0.6875q-1.03125 0 -1.5625 0.6875q-0.515625 0.671875 -0.515625 2.015625zm12.097122 3.484375l0 -4.5q0 -0.84375 -0.390625 -1.265625q-0.375 -0.421875 -1.203125 -0.421875q-1.09375 0 -1.609375 0.59375q-0.5 0.578125 -0.5 1.9375l0 3.65625l-1.046875 0l0 -6.953125l0.84375 0l0.171875 0.953125l0.0625 0q0.3125 -0.515625 0.890625 -0.796875q0.59375 -0.28125 1.3125 -0.28125q1.25 0 1.890625 0.609375q0.640625 0.59375 0.640625 1.9375l0 4.53125l-1.0625 0zm8.16478 -0.9375l-0.0625 0q-0.734375 1.0625 -2.1875 1.0625q-1.359375 0 -2.125 -0.921875q-0.75 -0.9375 -0.75 -2.65625q0 -1.734375 0.75 -2.671875q0.765625 -0.953125 2.125 -0.953125q1.421875 0 2.171875 1.015625l0.078125 0l-0.03125 -0.5l-0.03125 -0.484375l0 -2.828125l1.046875 0l0 9.875l-0.84375 0l-0.140625 -0.9375zm-2.109375 0.1875q1.078125 0 1.5625 -0.59375q0.484375 -0.59375 0.484375 -1.890625l0 -0.21875q0 -1.484375 -0.5 -2.109375q-0.484375 -0.640625 -1.5625 -0.640625q-0.921875 0 -1.421875 0.71875q-0.484375 0.71875 -0.484375 2.03125q0 1.34375 0.484375 2.03125q0.484375 0.671875 1.4375 0.671875zm12.176453 -6.328125q0.453125 0 0.828125 0.0625l-0.140625 0.984375q-0.4375 -0.09375 -0.765625 -0.09375q-0.84375 0 -1.453125 0.6875q-0.59375 0.6875 -0.59375 1.703125l0 3.734375l-1.046875 0l0 -6.953125l0.859375 0l0.125 1.28125l0.046875 0q0.390625 -0.671875 0.9375 -1.03125q0.546875 -0.375 1.203125 -0.375zm5.2062073 7.203125q-1.546875 0 -2.4375 -0.9375q-0.890625 -0.9375 -0.890625 -2.609375q0 -1.6875 0.828125 -2.671875q0.828125 -0.984375 2.21875 -0.984375q1.3125 0 2.0625 0.859375q0.765625 0.859375 0.765625 2.265625l0 0.671875l-4.78125 0q0.03125 1.21875 0.609375 1.859375q0.59375 0.625 1.65625 0.625q1.125 0 2.21875 -0.46875l0 0.9375q-0.5625 0.25 -1.0625 0.34375q-0.484375 0.109375 -1.1875 0.109375zm-0.296875 -6.328125q-0.828125 0 -1.328125 0.546875q-0.5 0.546875 -0.59375 1.515625l3.640625 0q0 -1.0 -0.453125 -1.53125q-0.4375 -0.53125 -1.265625 -0.53125zm7.6025543 6.328125q-1.5 0 -2.328125 -0.921875q-0.828125 -0.9375 -0.828125 -2.640625q0 -1.75 0.828125 -2.6875q0.84375 -0.953125 2.40625 -0.953125q0.5 0 1.0 0.109375q0.5 0.09375 0.78125 0.25l-0.3125 0.890625q-0.359375 -0.140625 -0.765625 -0.234375q-0.40625 -0.09375 -0.734375 -0.09375q-2.109375 0 -2.109375 2.703125q0 1.28125 0.515625 1.96875q0.515625 0.6875 1.53125 0.6875q0.859375 0 1.78125 -0.375l0 0.9375q-0.703125 0.359375 -1.765625 0.359375zm6.5170593 0q-1.546875 0 -2.4375 -0.9375q-0.890625 -0.9375 -0.890625 -2.609375q0 -1.6875 0.828125 -2.671875q0.828125 -0.984375 2.21875 -0.984375q1.3125 0 2.0625 0.859375q0.765625 0.859375 0.765625 2.265625l0 0.671875l-4.78125 0q0.03125 1.21875 0.609375 1.859375q0.59375 0.625 1.65625 0.625q1.125 0 2.21875 -0.46875l0 0.9375q-0.5625 0.25 -1.0625 0.34375q-0.484375 0.109375 -1.1875 0.109375zm-0.296875 -6.328125q-0.828125 0 -1.328125 0.546875q-0.5 0.546875 -0.59375 1.515625l3.640625 0q0 -1.0 -0.453125 -1.53125q-0.4375 -0.53125 -1.265625 -0.53125zm5.8838043 6.203125l-1.046875 0l0 -6.953125l1.046875 0l0 6.953125zm-1.140625 -8.84375q0 -0.359375 0.171875 -0.53125q0.1875 -0.171875 0.453125 -0.171875q0.25 0 0.421875 0.171875q0.1875 0.171875 0.1875 0.53125q0 0.359375 -0.1875 0.53125q-0.171875 0.171875 -0.421875 0.171875q-0.265625 0 -0.453125 -0.171875q-0.171875 -0.171875 -0.171875 -0.53125zm4.9804535 8.84375l-2.640625 -6.953125l1.125 0l1.5 4.125q0.515625 1.4375 0.59375 1.875l0.0625 0q0.0625 -0.328125 0.4375 -1.390625q0.375 -1.0625 1.671875 -4.609375l1.125 0l-2.640625 6.953125l-1.234375 0zm8.098953 0.125q-1.546875 0 -2.4375 -0.9375q-0.890625 -0.9375 -0.890625 -2.609375q0 -1.6875 0.828125 -2.671875q0.828125 -0.984375 2.21875 -0.984375q1.3125 0 2.0625 0.859375q0.765625 0.859375 0.765625 2.265625l0 0.671875l-4.78125 0q0.03125 1.21875 0.609375 1.859375q0.59375 0.625 1.65625 0.625q1.125 0 2.21875 -0.46875l0 0.9375q-0.5625 0.25 -1.0625 0.34375q-0.484375 0.109375 -1.1875 0.109375zm-0.296875 -6.328125q-0.828125 0 -1.328125 0.546875q-0.5 0.546875 -0.59375 1.515625l3.640625 0q0 -1.0 -0.453125 -1.53125q-0.4375 -0.53125 -1.265625 -0.53125zm13.970993 6.203125l-1.28125 -4.078125q-0.109375 -0.375 -0.4375 -1.703125l-0.0625 0q-0.25 1.109375 -0.4375 1.71875l-1.3125 4.0625l-1.21875 0l-1.90625 -6.953125l1.109375 0q0.671875 2.625 1.015625 4.0q0.359375 1.359375 0.40625 1.828125l0.0625 0q0.0625 -0.359375 0.21875 -0.921875q0.15625 -0.578125 0.265625 -0.921875l1.28125 -3.984375l1.140625 0l1.25 3.984375q0.359375 1.09375 0.484375 1.84375l0.046875 0q0.03125 -0.234375 0.140625 -0.703125q0.109375 -0.484375 1.3125 -5.125l1.09375 0l-1.921875 6.953125l-1.25 0zm5.74205 0l-1.046875 0l0 -6.953125l1.046875 0l0 6.953125zm-1.140625 -8.84375q0 -0.359375 0.171875 -0.53125q0.1875 -0.171875 0.453125 -0.171875q0.25 0 0.421875 0.171875q0.1875 0.171875 0.1875 0.53125q0 0.359375 -0.1875 0.53125q-0.171875 0.171875 -0.421875 0.171875q-0.265625 0 -0.453125 -0.171875q-0.171875 -0.171875 -0.171875 -0.53125zm8.2148285 8.84375l0 -4.5q0 -0.84375 -0.390625 -1.265625q-0.375 -0.421875 -1.203125 -0.421875q-1.09375 0 -1.609375 0.59375q-0.5 0.578125 -0.5 1.9375l0 3.65625l-1.046875 0l0 -6.953125l0.84375 0l0.171875 0.953125l0.0625 0q0.3125 -0.515625 0.890625 -0.796875q0.59375 -0.28125 1.3125 -0.28125q1.25 0 1.890625 0.609375q0.640625 0.59375 0.640625 1.9375l0 4.53125l-1.0625 0zm8.16478 -0.9375l-0.0625 0q-0.734375 1.0625 -2.1875 1.0625q-1.359375 0 -2.125 -0.921875q-0.75 -0.9375 -0.75 -2.65625q0 -1.734375 0.75 -2.671875q0.765625 -0.953125 2.125 -0.953125q1.421875 0 2.171875 1.015625l0.078125 0l-0.03125 -0.5l-0.03125 -0.484375l0 -2.828125l1.046875 0l0 9.875l-0.84375 0l-0.140625 -0.9375zm-2.109375 0.1875q1.078125 0 1.5625 -0.59375q0.484375 -0.59375 0.484375 -1.890625l0 -0.21875q0 -1.484375 -0.5 -2.109375q-0.484375 -0.640625 -1.5625 -0.640625q-0.921875 0 -1.421875 0.71875q-0.484375 0.71875 -0.484375 2.03125q0 1.34375 0.484375 2.03125q0.484375 0.671875 1.4375 0.671875zm11.542389 -2.734375q0 1.703125 -0.859375 2.65625q-0.859375 0.953125 -2.375 0.953125q-0.921875 0 -1.65625 -0.4375q-0.71875 -0.4375 -1.109375 -1.25q-0.390625 -0.828125 -0.390625 -1.921875q0 -1.703125 0.84375 -2.640625q0.859375 -0.953125 2.359375 -0.953125q1.46875 0 2.328125 0.96875q0.859375 0.96875 0.859375 2.625zm-5.296875 0q0 1.328125 0.53125 2.03125q0.53125 0.703125 1.5625 0.703125q1.03125 0 1.5625 -0.6875q0.546875 -0.703125 0.546875 -2.046875q0 -1.328125 -0.546875 -2.015625q-0.53125 -0.6875 -1.578125 -0.6875q-1.03125 0 -1.5625 0.6875q-0.515625 0.671875 -0.515625 2.015625zm13.018997 3.484375l-1.28125 -4.078125q-0.109375 -0.375 -0.4375 -1.703125l-0.0625 0q-0.25 1.109375 -0.4375 1.71875l-1.3125 4.0625l-1.21875 0l-1.90625 -6.953125l1.109375 0q0.671875 2.625 1.015625 4.0q0.359375 1.359375 0.40625 1.828125l0.0625 0q0.0625 -0.359375 0.21875 -0.921875q0.15625 -0.578125 0.265625 -0.921875l1.28125 -3.984375l1.140625 0l1.25 3.984375q0.359375 1.09375 0.484375 1.84375l0.046875 0q0.03125 -0.234375 0.140625 -0.703125q0.109375 -0.484375 1.3125 -5.125l1.09375 0l-1.921875 6.953125l-1.25 0z" fill-rule="nonzero"></path><path fill="#000000" fill-opacity="0.0" d="m340.82413 271.58435l269.5748 0" fill-rule="nonzero"></path><path stroke="#6aa84f" stroke-width="1.0" stroke-linejoin="round" stroke-linecap="butt" stroke-dasharray="4.0,3.0" d="m346.8241 271.58435l263.57483 0" fill-rule="evenodd"></path><path fill="#6aa84f" stroke="#6aa84f" stroke-width="1.0" stroke-linecap="butt" d="m346.82413 269.93262l-4.538086 1.6517334l4.538086 1.6517334z" fill-rule="evenodd"></path><path fill="#000000" fill-opacity="0.0" d="m340.08267 152.14699l271.96854 0" fill-rule="nonzero"></path><path stroke="#595959" stroke-width="1.0" stroke-linejoin="round" stroke-linecap="butt" stroke-dasharray="1.0,3.0" d="m346.08267 152.14699l265.96854 0" fill-rule="evenodd"></path><path fill="#595959" stroke="#595959" stroke-width="1.0" stroke-linecap="butt" d="m346.08267 150.49525l-4.538086 1.6517334l4.538086 1.6517334z" fill-rule="evenodd"></path><path fill="#000000" fill-opacity="0.0" d="m453.7513 149.9902l215.99997 0l0 28.220474l-215.99997 0z" fill-rule="nonzero"></path><path fill="#666666" d="m469.39194 169.96043l-0.25 -1.21875l-0.0625 0q-0.640625 0.796875 -1.28125 1.09375q-0.640625 0.28125 -1.59375 0.28125q-1.265625 0 -2.0 -0.65625q-0.71875 -0.65625 -0.71875 -1.875q0 -2.59375 4.15625 -2.71875l1.453125 -0.046875l0 -0.53125q0 -1.0 -0.4375 -1.484375q-0.4375 -0.484375 -1.390625 -0.484375q-1.0625 0 -2.421875 0.65625l-0.390625 -0.984375q0.625 -0.34375 1.375 -0.53125q0.765625 -0.203125 1.515625 -0.203125q1.53125 0 2.265625 0.6875q0.75 0.671875 0.75 2.171875l0 5.84375l-0.96875 0zm-2.921875 -0.921875q1.203125 0 1.890625 -0.65625q0.703125 -0.671875 0.703125 -1.859375l0 -0.78125l-1.296875 0.0625q-1.546875 0.046875 -2.234375 0.484375q-0.6875 0.421875 -0.6875 1.3125q0 0.703125 0.421875 1.078125q0.4375 0.359375 1.203125 0.359375zm9.9765625 1.078125q-1.859375 0 -2.875 -1.140625q-1.015625 -1.15625 -1.015625 -3.25q0 -2.140625 1.03125 -3.3125q1.03125 -1.171875 2.953125 -1.171875q0.609375 0 1.21875 0.140625q0.625 0.125 0.984375 0.296875l-0.40625 1.109375q-0.421875 -0.171875 -0.9375 -0.28125q-0.5 -0.125 -0.890625 -0.125q-2.609375 0 -2.609375 3.328125q0 1.578125 0.625 2.421875q0.640625 0.84375 1.890625 0.84375q1.078125 0 2.203125 -0.453125l0 1.140625q-0.859375 0.453125 -2.171875 0.453125zm5.4765625 -4.546875q0.34375 -0.46875 1.03125 -1.25l2.765625 -2.921875l1.53125 0l-3.46875 3.640625l3.71875 4.921875l-1.578125 0l-3.015625 -4.046875l-0.984375 0.84375l0 3.203125l-1.28125 0l0 -12.15625l1.28125 0l0 6.4375q0 0.4375 -0.0625 1.328125l0.0625 0zm12.9765625 4.390625l0 -5.546875q0 -1.046875 -0.484375 -1.5625q-0.46875 -0.515625 -1.484375 -0.515625q-1.34375 0 -1.96875 0.734375q-0.625 0.71875 -0.625 2.390625l0 4.5l-1.296875 0l0 -8.5625l1.0625 0l0.203125 1.171875l0.0625 0q0.40625 -0.640625 1.125 -0.984375q0.71875 -0.34375 1.59375 -0.34375q1.546875 0 2.328125 0.75q0.78125 0.734375 0.78125 2.375l0 5.59375l-1.296875 0zm11.3515625 -4.296875q0 2.09375 -1.0625 3.28125q-1.046875 1.171875 -2.90625 1.171875q-1.140625 0 -2.03125 -0.53125q-0.890625 -0.546875 -1.375 -1.546875q-0.484375 -1.015625 -0.484375 -2.375q0 -2.09375 1.046875 -3.25q1.046875 -1.171875 2.90625 -1.171875q1.796875 0 2.84375 1.203125q1.0625 1.1875 1.0625 3.21875zm-6.515625 0q0 1.640625 0.65625 2.5q0.65625 0.859375 1.921875 0.859375q1.28125 0 1.9375 -0.84375q0.65625 -0.859375 0.65625 -2.515625q0 -1.625 -0.65625 -2.46875q-0.65625 -0.859375 -1.953125 -0.859375q-1.265625 0 -1.921875 0.84375q-0.640625 0.828125 -0.640625 2.484375zm15.789032 4.296875l-1.578125 -5.03125q-0.140625 -0.453125 -0.546875 -2.09375l-0.0625 0q-0.3125 1.375 -0.546875 2.109375l-1.6249695 5.015625l-1.5 0l-2.328125 -8.5625l1.359375 0q0.828125 3.21875 1.25 4.90625q0.4375 1.6875 0.5 2.28125l0.0625 0q0.09375 -0.453125 0.28125 -1.15625q0.1875 -0.703125 0.328125 -1.125l1.5780945 -4.90625l1.40625 0l1.53125 4.90625q0.4375 1.34375 0.59375 2.265625l0.0625 0q0.03125 -0.28125 0.15625 -0.859375q0.140625 -0.59375 1.640625 -6.3125l1.34375 0l-2.375 8.5625l-1.53125 0zm6.7421875 0l-1.296875 0l0 -12.15625l1.296875 0l0 12.15625zm6.375 0.15625q-1.90625 0 -3.0 -1.15625q-1.09375 -1.15625 -1.09375 -3.21875q0 -2.0625 1.015625 -3.28125q1.015625 -1.21875 2.734375 -1.21875q1.609375 0 2.546875 1.0625q0.9375 1.046875 0.9375 2.78125l0 0.828125l-5.890625 0q0.03125 1.5 0.75 2.28125q0.734375 0.78125 2.046875 0.78125q1.375 0 2.734375 -0.578125l0 1.15625q-0.6875 0.296875 -1.3125 0.421875q-0.609375 0.140625 -1.46875 0.140625zm-0.359375 -7.796875q-1.03125 0 -1.640625 0.671875q-0.609375 0.671875 -0.71875 1.859375l4.46875 0q0 -1.21875 -0.546875 -1.875q-0.546875 -0.65625 -1.5625 -0.65625zm11.5390625 6.484375l-0.0625 0q-0.90625 1.3125 -2.6875 1.3125q-1.6875 0 -2.625 -1.140625q-0.921875 -1.15625 -0.921875 -3.28125q0 -2.109375 0.9375 -3.28125q0.9375 -1.171875 2.609375 -1.171875q1.734375 0 2.671875 1.265625l0.09375 0l-0.046875 -0.625l-0.03125 -0.59375l0 -3.484375l1.296875 0l0 12.15625l-1.0625 0l-0.171875 -1.15625zm-2.59375 0.21875q1.328125 0 1.921875 -0.71875q0.609375 -0.71875 0.609375 -2.328125l0 -0.28125q0 -1.8125 -0.609375 -2.59375q-0.609375 -0.78125 -1.9375 -0.78125q-1.140625 0 -1.75 0.890625q-0.59375 0.890625 -0.59375 2.5q0 1.640625 0.59375 2.484375q0.609375 0.828125 1.765625 0.828125zm13.5859375 -7.625l0 0.8125l-1.59375 0.1875q0.21875 0.28125 0.390625 0.71875q0.171875 0.4375 0.171875 1.0q0 1.25 -0.859375 2.0q-0.859375 0.75 -2.359375 0.75q-0.375 0 -0.71875 -0.0625q-0.828125 0.4375 -0.828125 1.109375q0 0.34375 0.28125 0.515625q0.296875 0.171875 1.0 0.171875l1.515625 0q1.390625 0 2.140625 0.59375q0.75 0.578125 0.75 1.703125q0 1.421875 -1.140625 2.15625q-1.140625 0.75 -3.328125 0.75q-1.6875 0 -2.59375 -0.625q-0.90625 -0.625 -0.90625 -1.765625q0 -0.78125 0.5 -1.359375q0.5 -0.5625 1.40625 -0.765625q-0.328125 -0.15625 -0.5625 -0.46875q-0.21875 -0.3125 -0.21875 -0.71875q0 -0.46875 0.25 -0.8125q0.25 -0.359375 0.796875 -0.6875q-0.671875 -0.28125 -1.09375 -0.9375q-0.40625 -0.65625 -0.40625 -1.5q0 -1.40625 0.84375 -2.15625q0.84375 -0.765625 2.390625 -0.765625q0.671875 0 1.203125 0.15625l2.96875 0zm-6.828125 10.0q0 0.703125 0.578125 1.0625q0.59375 0.359375 1.6875 0.359375q1.625 0 2.40625 -0.5q0.796875 -0.484375 0.796875 -1.3125q0 -0.703125 -0.4375 -0.984375q-0.421875 -0.265625 -1.609375 -0.265625l-1.5625 0q-0.875 0 -1.375 0.421875q-0.484375 0.4375 -0.484375 1.21875zm0.703125 -7.265625q0 0.90625 0.5 1.375q0.515625 0.453125 1.421875 0.453125q1.890625 0 1.890625 -1.84375q0 -1.9375 -1.921875 -1.9375q-0.90625 0 -1.40625 0.5q-0.484375 0.484375 -0.484375 1.453125zm11.5 5.984375q-1.90625 0 -3.0 -1.15625q-1.09375 -1.15625 -1.09375 -3.21875q0 -2.0625 1.015625 -3.28125q1.015625 -1.21875 2.734375 -1.21875q1.609375 0 2.546875 1.0625q0.9375 1.046875 0.9375 2.78125l0 0.828125l-5.890625 0q0.03125 1.5 0.75 2.28125q0.734375 0.78125 2.046875 0.78125q1.375 0 2.734375 -0.578125l0 1.15625q-0.6875 0.296875 -1.3125 0.421875q-0.609375 0.140625 -1.46875 0.140625zm-0.359375 -7.796875q-1.03125 0 -1.640625 0.671875q-0.609375 0.671875 -0.71875 1.859375l4.46875 0q0 -1.21875 -0.546875 -1.875q-0.546875 -0.65625 -1.5625 -0.65625zm16.632812 7.640625l0 -5.578125q0 -1.015625 -0.4375 -1.53125q-0.4375 -0.515625 -1.359375 -0.515625q-1.21875 0 -1.796875 0.703125q-0.578125 0.6875 -0.578125 2.140625l0 4.78125l-1.296875 0l0 -5.578125q0 -1.015625 -0.4375 -1.53125q-0.4375 -0.515625 -1.359375 -0.515625q-1.21875 0 -1.796875 0.734375q-0.5625 0.734375 -0.5625 2.390625l0 4.5l-1.296875 0l0 -8.5625l1.0625 0l0.203125 1.171875l0.0625 0q0.375 -0.625 1.03125 -0.96875q0.671875 -0.359375 1.5 -0.359375q2.015625 0 2.625 1.453125l0.0625 0q0.390625 -0.671875 1.109375 -1.0625q0.734375 -0.390625 1.65625 -0.390625q1.453125 0 2.171875 0.75q0.734375 0.734375 0.734375 2.375l0 5.59375l-1.296875 0zm7.5859375 0.15625q-1.90625 0 -3.0 -1.15625q-1.09375 -1.15625 -1.09375 -3.21875q0 -2.0625 1.015625 -3.28125q1.015625 -1.21875 2.734375 -1.21875q1.609375 0 2.546875 1.0625q0.9375 1.046875 0.9375 2.78125l0 0.828125l-5.890625 0q0.03125 1.5 0.75 2.28125q0.734375 0.78125 2.046875 0.78125q1.375 0 2.734375 -0.578125l0 1.15625q-0.6875 0.296875 -1.3125 0.421875q-0.609375 0.140625 -1.46875 0.140625zm-0.359375 -7.796875q-1.03125 0 -1.640625 0.671875q-0.609375 0.671875 -0.71875 1.859375l4.46875 0q0 -1.21875 -0.546875 -1.875q-0.546875 -0.65625 -1.5625 -0.65625zm11.5703125 7.640625l0 -5.546875q0 -1.046875 -0.484375 -1.5625q-0.46875 -0.515625 -1.484375 -0.515625q-1.34375 0 -1.96875 0.734375q-0.625 0.71875 -0.625 2.390625l0 4.5l-1.296875 0l0 -8.5625l1.0625 0l0.203125 1.171875l0.0625 0q0.40625 -0.640625 1.125 -0.984375q0.71875 -0.34375 1.59375 -0.34375q1.546875 0 2.328125 0.75q0.78125 0.734375 0.78125 2.375l0 5.59375l-1.296875 0zm6.7265625 -0.921875q0.34375 0 0.65625 -0.046875q0.328125 -0.046875 0.515625 -0.109375l0 1.0q-0.203125 0.109375 -0.625 0.171875q-0.40625 0.0625 -0.734375 0.0625q-2.484375 0 -2.484375 -2.625l0 -5.09375l-1.21875 0l0 -0.625l1.21875 -0.53125l0.546875 -1.828125l0.75 0l0 1.984375l2.484375 0l0 1.0l-2.484375 0l0 5.046875q0 0.765625 0.359375 1.1875q0.375 0.40625 1.015625 0.40625z" fill-rule="nonzero"></path><path fill="#000000" fill-opacity="0.0" d="m71.27559 141.45145l269.54333 0" fill-rule="nonzero"></path><path stroke="#a61c00" stroke-width="1.0" stroke-linejoin="round" stroke-linecap="butt" d="m71.27559 141.45145l263.54333 0" fill-rule="evenodd"></path><path fill="#a61c00" stroke="#a61c00" stroke-width="1.0" stroke-linecap="butt" d="m334.8189 143.10318l4.538086 -1.6517334l-4.538086 -1.6517334z" fill-rule="evenodd"></path><path fill="#000000" fill-opacity="0.0" d="m612.0525 158.72704l278.14172 0" fill-rule="nonzero"></path><path stroke="#a61c00" stroke-width="1.0" stroke-linejoin="round" stroke-linecap="butt" d="m612.0525 158.72704l272.14172 0" fill-rule="evenodd"></path><path fill="#a61c00" stroke="#a61c00" stroke-width="1.0" stroke-linecap="butt" d="m884.1942 160.37877l4.538086 -1.6517334l-4.538086 -1.6517334z" fill-rule="evenodd"></path><path fill="#000000" fill-opacity="0.0" d="m611.2756 267.18896l278.89764 0" fill-rule="nonzero"></path><path stroke="#6aa84f" stroke-width="1.0" stroke-linejoin="round" stroke-linecap="butt" stroke-dasharray="4.0,3.0" d="m617.2756 267.18896l272.89764 0" fill-rule="evenodd"></path><path fill="#6aa84f" stroke="#6aa84f" stroke-width="1.0" stroke-linecap="butt" d="m617.2756 265.53723l-4.538086 1.6517334l4.538086 1.6517334z" fill-rule="evenodd"></path><path fill="#000000" fill-opacity="0.0" d="m703.11395 238.08568l216.0 0l0 28.220474l-216.0 0z" fill-rule="nonzero"></path><path fill="#6aa84f" d="m716.8796 259.3034q-1.828125 0 -2.875 -1.421875q-1.03125 -1.421875 -1.03125 -3.9375q0 -2.546875 1.0625 -3.96875q1.0625 -1.421875 2.921875 -1.421875q1.953125 0 2.984375 1.515625l0.09375 0q-0.21875 -1.15625 -0.21875 -2.0625l0 -3.328125l2.84375 0l0 14.4375l-2.171875 0l-0.546875 -1.34375l-0.125 0q-0.953125 1.53125 -2.9375 1.53125zm1.0 -2.25q1.078125 0 1.578125 -0.625q0.515625 -0.640625 0.5625 -2.15625l0 -0.3125q0 -1.65625 -0.515625 -2.375q-0.515625 -0.734375 -1.671875 -0.734375q-0.953125 0 -1.484375 0.8125q-0.515625 0.796875 -0.515625 2.328125q0 1.53125 0.53125 2.296875q0.53125 0.765625 1.515625 0.765625zm9.774658 -3.140625q0 1.53125 0.5 2.328125q0.515625 0.78125 1.65625 0.78125q1.125 0 1.625 -0.78125q0.5 -0.78125 0.5 -2.328125q0 -1.546875 -0.5 -2.3125q-0.5 -0.765625 -1.640625 -0.765625q-1.140625 0 -1.640625 0.765625q-0.5 0.765625 -0.5 2.3125zm7.171875 0q0 2.53125 -1.34375 3.96875q-1.328125 1.421875 -3.703125 1.421875q-1.5 0 -2.640625 -0.65625q-1.140625 -0.65625 -1.75 -1.875q-0.609375 -1.234375 -0.609375 -2.859375q0 -2.546875 1.3125 -3.953125q1.328125 -1.40625 3.734375 -1.40625q1.5 0 2.640625 0.65625q1.140625 0.640625 1.75 1.859375q0.609375 1.203125 0.609375 2.84375zm10.660217 5.203125l-0.796875 -3.625l-1.078125 -4.578125l-0.0625 0l-1.90625 8.203125l-3.03125 0l-2.953125 -10.375l2.8125 0l1.203125 4.59375q0.28125 1.234375 0.578125 3.40625l0.0625 0q0.03125 -0.703125 0.328125 -2.234375l0.140625 -0.796875l1.28125 -4.96875l3.125 0l1.203125 4.96875q0.046875 0.203125 0.125 0.609375q0.078125 0.40625 0.140625 0.859375q0.078125 0.4375 0.140625 0.875q0.0625 0.421875 0.078125 0.6875l0.046875 0q0.09375 -0.671875 0.296875 -1.828125q0.21875 -1.171875 0.3125 -1.578125l1.234375 -4.59375l2.78125 0l-2.984375 10.375l-3.078125 0zm17.01587 0l-2.828125 0l0 -6.0625q0 -1.125 -0.40625 -1.671875q-0.390625 -0.5625 -1.265625 -0.5625q-1.1875 0 -1.71875 0.796875q-0.53125 0.78125 -0.53125 2.625l0 4.875l-2.828125 0l0 -10.375l2.15625 0l0.390625 1.328125l0.15625 0q0.46875 -0.75 1.296875 -1.125q0.828125 -0.390625 1.890625 -0.390625q1.8125 0 2.75 0.984375q0.9375 0.96875 0.9375 2.8125l0 6.765625zm5.5113525 0l-2.828125 0l0 -14.4375l2.828125 0l0 14.4375zm2.7402954 -13.046875q0 -1.390625 1.546875 -1.390625q1.53125 0 1.53125 1.390625q0 0.65625 -0.390625 1.03125q-0.375 0.359375 -1.140625 0.359375q-1.546875 0 -1.546875 -1.390625zm2.953125 13.046875l-2.828125 0l0 -10.375l2.828125 0l0 10.375zm12.443481 0l-2.828125 0l0 -6.0625q0 -1.125 -0.40625 -1.671875q-0.390625 -0.5625 -1.265625 -0.5625q-1.1875 0 -1.71875 0.796875q-0.53125 0.78125 -0.53125 2.625l0 4.875l-2.828125 0l0 -10.375l2.15625 0l0.390625 1.328125l0.15625 0q0.46875 -0.75 1.296875 -1.125q0.828125 -0.390625 1.890625 -0.390625q1.8125 0 2.75 0.984375q0.9375 0.96875 0.9375 2.8125l0 6.765625zm5.4019775 -5.640625l1.234375 -1.578125l2.90625 -3.15625l3.1875 0l-4.125 4.5l4.375 5.875l-3.265625 0l-2.984375 -4.203125l-1.21875 0.96875l0 3.234375l-2.828125 0l0 -14.4375l2.828125 0l0 6.4375l-0.140625 2.359375l0.03125 0zm22.977844 5.640625l-2.828125 0l0 -6.0625q0 -1.125 -0.375 -1.671875q-0.375 -0.5625 -1.171875 -0.5625q-1.09375 0 -1.59375 0.796875q-0.484375 0.796875 -0.484375 2.625l0 4.875l-2.828125 0l0 -10.375l2.15625 0l0.390625 1.328125l0.15625 0q0.421875 -0.71875 1.203125 -1.109375q0.78125 -0.40625 1.8125 -0.40625q2.328125 0 3.15625 1.515625l0.25 0q0.40625 -0.71875 1.21875 -1.109375q0.8125 -0.40625 1.84375 -0.40625q1.75 0 2.65625 0.90625q0.90625 0.890625 0.90625 2.890625l0 6.765625l-2.828125 0l0 -6.0625q0 -1.125 -0.390625 -1.671875q-0.375 -0.5625 -1.171875 -0.5625q-1.046875 0 -1.5625 0.75q-0.515625 0.734375 -0.515625 2.34375l0 5.203125zm13.334778 -8.546875q-0.90625 0 -1.421875 0.578125q-0.5 0.5625 -0.578125 1.609375l3.96875 0q-0.015625 -1.046875 -0.546875 -1.609375q-0.515625 -0.578125 -1.421875 -0.578125zm0.390625 8.734375q-2.5 0 -3.90625 -1.375q-1.40625 -1.390625 -1.40625 -3.921875q0 -2.609375 1.296875 -4.03125q1.296875 -1.421875 3.609375 -1.421875q2.1875 0 3.40625 1.25q1.234375 1.25 1.234375 3.453125l0 1.375l-6.6875 0q0.046875 1.203125 0.71875 1.890625q0.671875 0.671875 1.875 0.671875q0.9375 0 1.765625 -0.1875q0.84375 -0.203125 1.75 -0.625l0 2.1875q-0.75 0.375 -1.59375 0.546875q-0.84375 0.1875 -2.0625 0.1875zm13.569397 -3.265625q0 1.59375 -1.109375 2.4375q-1.109375 0.828125 -3.3125 0.828125q-1.140625 0 -1.9375 -0.15625q-0.796875 -0.15625 -1.484375 -0.453125l0 -2.328125q0.78125 0.359375 1.765625 0.609375q1.0 0.25 1.75 0.25q1.53125 0 1.53125 -0.890625q0 -0.328125 -0.203125 -0.53125q-0.203125 -0.21875 -0.703125 -0.46875q-0.5 -0.265625 -1.328125 -0.625q-1.203125 -0.5 -1.765625 -0.921875q-0.5625 -0.4375 -0.8125 -0.984375q-0.25 -0.546875 -0.25 -1.359375q0 -1.390625 1.0625 -2.140625q1.078125 -0.75 3.046875 -0.75q1.875 0 3.640625 0.8125l-0.859375 2.046875q-0.765625 -0.34375 -1.453125 -0.546875q-0.671875 -0.21875 -1.375 -0.21875q-1.25 0 -1.25 0.671875q0 0.390625 0.390625 0.671875q0.40625 0.265625 1.765625 0.8125q1.21875 0.5 1.78125 0.921875q0.578125 0.421875 0.84375 0.984375q0.265625 0.5625 0.265625 1.328125zm9.2734375 0q0 1.59375 -1.109375 2.4375q-1.109375 0.828125 -3.3125 0.828125q-1.140625 0 -1.9375 -0.15625q-0.796875 -0.15625 -1.484375 -0.453125l0 -2.328125q0.78125 0.359375 1.765625 0.609375q1.0 0.25 1.75 0.25q1.53125 0 1.53125 -0.890625q0 -0.328125 -0.203125 -0.53125q-0.203125 -0.21875 -0.703125 -0.46875q-0.5 -0.265625 -1.328125 -0.625q-1.203125 -0.5 -1.765625 -0.921875q-0.5625 -0.4375 -0.8125 -0.984375q-0.25 -0.546875 -0.25 -1.359375q0 -1.390625 1.0625 -2.140625q1.078125 -0.75 3.046875 -0.75q1.875 0 3.640625 0.8125l-0.859375 2.046875q-0.765625 -0.34375 -1.453125 -0.546875q-0.671875 -0.21875 -1.375 -0.21875q-1.25 0 -1.25 0.671875q0 0.390625 0.390625 0.671875q0.40625 0.265625 1.765625 0.8125q1.21875 0.5 1.78125 0.921875q0.578125 0.421875 0.84375 0.984375q0.265625 0.5625 0.265625 1.328125zm8.632874 3.078125l-0.546875 -1.40625l-0.078125 0q-0.71875 0.890625 -1.484375 1.25q-0.75 0.34375 -1.953125 0.34375q-1.5 0 -2.359375 -0.84375q-0.859375 -0.859375 -0.859375 -2.4375q0 -1.65625 1.15625 -2.4375q1.15625 -0.78125 3.484375 -0.875l1.796875 -0.046875l0 -0.453125q0 -1.578125 -1.609375 -1.578125q-1.25 0 -2.921875 0.75l-0.9375 -1.921875q1.78125 -0.921875 3.96875 -0.921875q2.09375 0 3.203125 0.90625q1.109375 0.90625 1.109375 2.765625l0 6.90625l-1.96875 0zm-0.84375 -4.8125l-1.09375 0.046875q-1.234375 0.03125 -1.84375 0.4375q-0.59375 0.40625 -0.59375 1.25q0 1.1875 1.375 1.1875q0.984375 0 1.5625 -0.5625q0.59375 -0.5625 0.59375 -1.5l0 -0.859375zm14.549683 -5.5625l0 1.4375l-1.625 0.421875q0.4375 0.6875 0.4375 1.5625q0 1.671875 -1.171875 2.609375q-1.15625 0.921875 -3.21875 0.921875l-0.515625 -0.03125l-0.40625 -0.046875q-0.4375 0.34375 -0.4375 0.75q0 0.609375 1.546875 0.609375l1.765625 0q1.703125 0 2.59375 0.734375q0.90625 0.734375 0.90625 2.15625q0 1.8125 -1.515625 2.8125q-1.515625 1.0 -4.359375 1.0q-2.171875 0 -3.3125 -0.765625q-1.140625 -0.75 -1.140625 -2.109375q0 -0.9375 0.578125 -1.578125q0.578125 -0.625 1.71875 -0.890625q-0.4375 -0.1875 -0.765625 -0.609375q-0.328125 -0.421875 -0.328125 -0.890625q0 -0.59375 0.34375 -0.984375q0.34375 -0.40625 1.0 -0.78125q-0.8125 -0.34375 -1.296875 -1.125q-0.484375 -0.78125 -0.484375 -1.84375q0 -1.703125 1.109375 -2.625q1.109375 -0.921875 3.15625 -0.921875q0.4375 0 1.03125 0.078125q0.59375 0.078125 0.765625 0.109375l3.625 0zm-8.015625 11.84375q0 0.578125 0.5625 0.90625q0.5625 0.34375 1.578125 0.34375q1.515625 0 2.375 -0.421875q0.875 -0.40625 0.875 -1.140625q0 -0.578125 -0.515625 -0.8125q-0.515625 -0.21875 -1.578125 -0.21875l-1.46875 0q-0.78125 0 -1.3125 0.359375q-0.515625 0.375 -0.515625 0.984375zm1.03125 -8.453125q0 0.859375 0.390625 1.34375q0.390625 0.484375 1.171875 0.484375q0.796875 0 1.171875 -0.484375q0.375 -0.484375 0.375 -1.34375q0 -1.859375 -1.546875 -1.859375q-1.5625 0 -1.5625 1.859375zm12.789673 -1.5625q-0.90625 0 -1.421875 0.578125q-0.5 0.5625 -0.578125 1.609375l3.96875 0q-0.015625 -1.046875 -0.546875 -1.609375q-0.515625 -0.578125 -1.421875 -0.578125zm0.390625 8.734375q-2.5 0 -3.90625 -1.375q-1.40625 -1.390625 -1.40625 -3.921875q0 -2.609375 1.296875 -4.03125q1.296875 -1.421875 3.609375 -1.421875q2.1875 0 3.40625 1.25q1.234375 1.25 1.234375 3.453125l0 1.375l-6.6875 0q0.046875 1.203125 0.71875 1.890625q0.671875 0.671875 1.875 0.671875q0.9375 0 1.765625 -0.1875q0.84375 -0.203125 1.75 -0.625l0 2.1875q-0.75 0.375 -1.59375 0.546875q-0.84375 0.1875 -2.0625 0.1875z" fill-rule="nonzero"></path><path fill="#6aa84f" d="m842.5656 6.2362204l93.921265 0l0 93.92126l-93.921265 0z" fill-rule="nonzero"></path><path fill="#ffffff" d="m880.48914 39.034348l8.078125 0q5.671875 0 8.203125 1.703125q2.546875 1.703125 2.546875 5.375q0 2.53125 -1.421875 4.1875q-1.40625 1.65625 -4.125 2.140625l0 0.1875q6.515625 1.125 6.515625 6.84375q0 3.828125 -2.59375 5.984375q-2.59375 2.140625 -7.234375 2.140625l-9.96875 0l0 -28.5625zm3.328125 12.234375l5.46875 0q3.515625 0 5.046875 -1.09375q1.546875 -1.109375 1.546875 -3.734375q0 -2.40625 -1.71875 -3.46875q-1.71875 -1.0625 -5.46875 -1.0625l-4.875 0l0 9.359375zm0 2.8125l0 10.6875l5.953125 0q3.453125 0 5.203125 -1.34375q1.75 -1.34375 1.75 -4.1875q0 -2.65625 -1.796875 -3.90625q-1.78125 -1.25 -5.421875 -1.25l-5.6875 0z" fill-rule="nonzero"></path><path fill="#a61c00" d="m23.510498 6.2362204l93.92126 0l0 93.92126l-93.92126 0z" fill-rule="nonzero"></path><path fill="#ffffff" d="m81.62738 67.59685l-3.796875 0l-15.593754 -23.96875l-0.15625 0q0.3125 4.21875 0.3125 7.734375l0 16.234375l-3.078125 0l0 -28.5625l3.75 0l15.578129 23.875l0.15625 0q-0.046875 -0.53125 -0.1875 -3.390625q-0.125 -2.859375 -0.09375 -4.09375l0 -16.390625l3.109375 0l0 28.5625z" fill-rule="nonzero"></path><path fill="#000000" fill-opacity="0.0" d="m70.47113 100.15748l0 274.04724" fill-rule="nonzero"></path><path stroke="#595959" stroke-width="1.0" stroke-linejoin="round" stroke-linecap="butt" d="m70.47113 100.15748l0 274.04724" fill-rule="nonzero"></path><path fill="#a61c00" d="m59.36446 333.60104l0 0c0 -6.079468 4.9283943 -11.007874 11.00787 -11.007874l0 0c2.9194717 0 5.719368 1.1597595 7.783745 3.2241516c2.0643768 2.0643616 3.2241287 4.864258 3.2241287 7.783722l0 0c0 6.0794983 -4.9283905 11.007874 -11.007874 11.007874l0 0c-6.0794754 0 -11.00787 -4.9283752 -11.00787 -11.007874z" fill-rule="nonzero"></path><path fill="#000000" fill-opacity="0.0" d="m889.5276 100.15748l0 274.04724" fill-rule="nonzero"></path><path stroke="#595959" stroke-width="1.0" stroke-linejoin="round" stroke-linecap="butt" d="m889.5276 100.15748l0 274.04724" fill-rule="nonzero"></path><path fill="#000000" fill-opacity="0.0" d="m81.3802 333.60104l260.28345 0" fill-rule="nonzero"></path><path stroke="#6aa84f" stroke-width="1.0" stroke-linejoin="round" stroke-linecap="butt" stroke-dasharray="4.0,3.0" d="m87.38021 333.60104l254.28345 0" fill-rule="evenodd"></path><path fill="#6aa84f" stroke="#6aa84f" stroke-width="1.0" stroke-linecap="butt" d="m87.38021 331.9493l-4.538101 1.6517334l4.538101 1.6517334z" fill-rule="evenodd"></path><path fill="#a61c00" d="m60.139206 236.25197l0 0c0 -6.079483 4.9283905 -11.007874 11.007874 -11.007874l0 0c2.9194717 0 5.719368 1.1597595 7.783745 3.2241364c2.0643768 2.0643768 3.2241287 4.864273 3.2241287 7.783737l0 0c0 6.079483 -4.9283905 11.007874 -11.007874 11.007874l0 0c-6.079483 0 -11.007874 -4.9283905 -11.007874 -11.007874z" fill-rule="nonzero"></path></g></svg>

