<?xml version="1.0" standalone="yes"?>

<svg version="1.1" viewBox="0.0 0.0 960.0 264.56692913385825" fill="none" stroke="none" stroke-linecap="square" stroke-miterlimit="10" xmlns="http://www.w3.org/2000/svg" xmlns:xlink="http://www.w3.org/1999/xlink"><clipPath id="gd93e062c5_0_15.0"><path d="m0 0l960.0 0l0 264.56693l-960.0 0l0 -264.56693z" clip-rule="nonzero"></path></clipPath><g clip-path="url(#gd93e062c5_0_15.0)"><path fill="#ffffff" d="m0 0l960.0 0l0 264.56693l-960.0 0z" fill-rule="nonzero"></path><path fill="#a61c00" d="m78.23097 8.244095l28.755905 0l0 28.755905l-28.755905 0z" fill-rule="nonzero"></path><path fill="#a61c00" d="m49.475067 50.125984l28.755905 0l0 28.755905l-28.755905 0z" fill-rule="nonzero"></path><path fill="#45818e" d="m144.06299 31.007874l66.99213 0l0 66.99213l-66.99213 0z" fill-rule="nonzero"></path><path fill="#ffffff" d="m179.09811 64.25519l7.765625 0l0 11.109375q-1.8125 0.578125 -3.6875 0.875q-1.875 0.296875 -4.34375 0.296875q-5.1875 0 -8.078125 -3.078125q-2.890625 -3.09375 -2.890625 -8.65625q0 -3.5625 1.421875 -6.234375q1.4375 -2.6875 4.125 -4.09375q2.6875 -1.421875 6.296875 -1.421875q3.65625 0 6.8125 1.34375l-1.03125 2.34375q-3.09375 -1.3125 -5.953125 -1.3125q-4.171875 0 -6.515625 2.484375q-2.34375 2.484375 -2.34375 6.890625q0 4.625 2.25 7.015625q2.265625 2.390625 6.640625 2.390625q2.375 0 4.640625 -0.546875l0 -7.03125l-5.109375 0l0 -2.375z" fill-rule="nonzero"></path><path fill="#a61c00" d="m94.7874 105.698166l28.755905 0l0 28.755905l-28.755905 0z" fill-rule="nonzero"></path><path fill="#000000" fill-opacity="0.0" d="m106.98688 22.622047l37.07086 41.889763" fill-rule="nonzero"></path><path stroke="#595959" stroke-width="1.0" stroke-linejoin="round" stroke-linecap="butt" stroke-dasharray="1.0,3.0" d="m106.98688 22.622047l37.07086 41.889763" fill-rule="nonzero"></path><path fill="#000000" fill-opacity="0.0" d="m78.23097 64.50394l65.82677 0" fill-rule="nonzero"></path><path stroke="#595959" stroke-width="1.0" stroke-linejoin="round" stroke-linecap="butt" stroke-dasharray="1.0,3.0" d="m78.23097 64.50394l65.82677 0" fill-rule="nonzero"></path><path fill="#000000" fill-opacity="0.0" d="m123.543304 120.07612l20.53543 -55.55906" fill-rule="nonzero"></path><path stroke="#595959" stroke-width="1.0" stroke-linejoin="round" stroke-linecap="butt" stroke-dasharray="1.0,3.0" d="m123.543304 120.07612l20.53543 -55.55906" fill-rule="nonzero"></path><path fill="#000000" fill-opacity="0.0" d="m211.05511 64.50394l246.23624 14.645668" fill-rule="nonzero"></path><path stroke="#595959" stroke-width="1.0" stroke-linejoin="round" stroke-linecap="butt" d="m211.05511 64.50394l240.2468 14.289429" fill-rule="evenodd"></path><path fill="#595959" stroke="#595959" stroke-width="1.0" stroke-linecap="butt" d="m451.20386 80.442184l4.6281433 -1.3793793l-4.432007 -1.9182587z" fill-rule="evenodd"></path><path fill="#e69138" d="m457.29135 44.020996l125.73227 0l0 125.732285l-125.73227 0z" fill-rule="nonzero"></path><path fill="#ffffff" d="m511.96997 110.82713l0 19.0l-5.3125 0l0 -45.6875l12.53125 0q8.40625 0 12.421875 3.21875q4.015625 3.21875 4.015625 9.6875q0 9.0625 -9.1875 12.25l12.40625 20.53125l-6.28125 0l-11.0625 -19.0l-9.53125 0zm0 -4.5625l7.28125 0q5.625 0 8.25 -2.234375q2.625 -2.234375 2.625 -6.703125q0 -4.53125 -2.671875 -6.53125q-2.671875 -2.0 -8.578125 -2.0l-6.90625 0l0 17.46875z" fill-rule="nonzero"></path><path fill="#a61c00" d="m151.39108 176.33595l28.755905 0l0 28.755905l-28.755905 0z" fill-rule="nonzero"></path><path fill="#a61c00" d="m195.3622 218.21785l28.755905 0l0 28.755905l-28.755905 0z" fill-rule="nonzero"></path><path fill="#45818e" d="m261.1942 157.21785l66.99213 0l0 66.99213l-66.99213 0z" fill-rule="nonzero"></path><path fill="#ffffff" d="m296.22934 190.46516l7.765625 0l0 11.109375q-1.8125 0.578125 -3.6875 0.875q-1.875 0.296875 -4.34375 0.296875q-5.1875 0 -8.078125 -3.078125q-2.890625 -3.09375 -2.890625 -8.65625q0 -3.5625 1.421875 -6.234375q1.4375 -2.6875 4.125 -4.09375q2.6875 -1.421875 6.296875 -1.421875q3.65625 0 6.8125 1.34375l-1.03125 2.34375q-3.09375 -1.3125 -5.953125 -1.3125q-4.171875 0 -6.515625 2.484375q-2.34375 2.484375 -2.34375 6.890625q0 4.625 2.25 7.015625q2.265625 2.390625 6.640625 2.390625q2.375 0 4.640625 -0.546875l0 -7.03125l-5.109375 0l0 -2.375z" fill-rule="nonzero"></path><path fill="#a61c00" d="m374.60367 224.20998l28.75592 0l0 28.755905l-28.75592 0z" fill-rule="nonzero"></path><path fill="#000000" fill-opacity="0.0" d="m180.14699 190.71391l81.03935 0" fill-rule="nonzero"></path><path stroke="#595959" stroke-width="1.0" stroke-linejoin="round" stroke-linecap="butt" stroke-dasharray="1.0,3.0" d="m180.14699 190.71391l81.03935 0" fill-rule="nonzero"></path><path fill="#000000" fill-opacity="0.0" d="m224.1181 232.5958l37.07086 -41.889755" fill-rule="nonzero"></path><path stroke="#595959" stroke-width="1.0" stroke-linejoin="round" stroke-linecap="butt" stroke-dasharray="1.0,3.0" d="m224.1181 232.5958l37.07086 -41.889755" fill-rule="nonzero"></path><path fill="#000000" fill-opacity="0.0" d="m403.3596 238.58792l-75.18112 -47.87401" fill-rule="nonzero"></path><path stroke="#595959" stroke-width="1.0" stroke-linejoin="round" stroke-linecap="butt" stroke-dasharray="1.0,3.0" d="m403.3596 238.58792l-75.18112 -47.87401" fill-rule="nonzero"></path><path fill="#000000" fill-opacity="0.0" d="m165.76903 176.33595l11.779526 -78.3307" fill-rule="nonzero"></path><path stroke="#595959" stroke-width="1.0" stroke-linejoin="round" stroke-linecap="butt" stroke-dasharray="1.0,3.0" d="m165.76903 176.33595l11.779526 -78.3307" fill-rule="nonzero"></path><path fill="#000000" fill-opacity="0.0" d="m294.69028 157.21785l162.6142 -50.33071" fill-rule="nonzero"></path><path stroke="#595959" stroke-width="1.0" stroke-linejoin="round" stroke-linecap="butt" d="m294.69028 157.21785l156.88245 -48.55668" fill-rule="evenodd"></path><path fill="#595959" stroke="#595959" stroke-width="1.0" stroke-linecap="butt" d="m452.0611 110.23905l3.8468323 -2.91967l-4.823578 -0.23609924z" fill-rule="evenodd"></path><path fill="#6aa84f" d="m781.07874 44.020996l125.7323 0l0 125.732285l-125.7323 0z" fill-rule="nonzero"></path><path fill="#ffffff" d="m829.49176 84.13963l12.90625 0q9.09375 0 13.15625 2.71875q4.0625 2.71875 4.0625 8.59375q0 4.0625 -2.265625 6.703125q-2.265625 2.640625 -6.609375 3.421875l0 0.3125q10.40625 1.78125 10.40625 10.9375q0 6.125 -4.140625 9.5625q-4.140625 3.4375 -11.578125 3.4375l-15.9375 0l0 -45.6875zm5.3125 19.5625l8.75 0q5.625 0 8.09375 -1.765625q2.46875 -1.765625 2.46875 -5.953125q0 -3.84375 -2.75 -5.546875q-2.75 -1.703125 -8.75 -1.703125l-7.8125 0l0 14.96875zm0 4.5l0 17.09375l9.53125 0q5.53125 0 8.328125 -2.140625q2.796875 -2.140625 2.796875 -6.703125q0 -4.25 -2.859375 -6.25q-2.859375 -2.0 -8.703125 -2.0l-9.09375 0z" fill-rule="nonzero"></path><path fill="#000000" fill-opacity="0.0" d="m583.0236 106.88714l198.04724 0" fill-rule="nonzero"></path><path stroke="#595959" stroke-width="1.0" stroke-linejoin="round" stroke-linecap="butt" d="m583.0236 106.88714l192.04724 0" fill-rule="evenodd"></path><path fill="#595959" stroke="#595959" stroke-width="1.0" stroke-linecap="butt" d="m775.07086 108.53887l4.538086 -1.6517334l-4.538086 -1.6517334z" fill-rule="evenodd"></path></g></svg>

