<?xml version="1.0" standalone="yes"?>

<svg version="1.1" viewBox="0.0 0.0 960.0 264.56692913385825" fill="none" stroke="none" stroke-linecap="square" stroke-miterlimit="10" xmlns="http://www.w3.org/2000/svg" xmlns:xlink="http://www.w3.org/1999/xlink"><clipPath id="gd93e062c5_0_49.0"><path d="m0 0l960.0 0l0 264.56693l-960.0 0l0 -264.56693z" clip-rule="nonzero"></path></clipPath><g clip-path="url(#gd93e062c5_0_49.0)"><path fill="#ffffff" d="m0 0l960.0 0l0 264.56693l-960.0 0z" fill-rule="nonzero"></path><path fill="#6aa84f" d="m57.669292 5.4173226l125.732285 0l0 125.73229l-125.732285 0z" fill-rule="nonzero"></path><path fill="#ffffff" d="m106.082306 45.53596l12.90625 0q9.09375 0 13.15625 2.71875q4.0625 2.71875 4.0625 8.59375q0 4.0625 -2.265625 6.703125q-2.265625 2.6406212 -6.609375 3.4218712l0 0.3125q10.40625 1.78125 10.40625 10.9375q0 6.125 -4.140625 9.5625q-4.140625 3.4375 -11.578125 3.4375l-15.9375 0l0 -45.687496zm5.3125 19.562496l8.75 0q5.625 0 8.09375 -1.7656212q2.46875 -1.765625 2.46875 -5.953125q0 -3.84375 -2.75 -5.546875q-2.75 -1.703125 -8.75 -1.703125l-7.8125 0l0 14.968746zm0 4.5l0 17.09375l9.53125 0q5.53125 0 8.328125 -2.140625q2.796875 -2.140625 2.796875 -6.703125q0 -4.25 -2.859375 -6.25q-2.859375 -2.0 -8.703125 -2.0l-9.09375 0z" fill-rule="nonzero"></path><path fill="#674ea7" d="m416.92914 5.4173226l125.7323 0l0 125.73229l-125.7323 0z" fill-rule="nonzero"></path><path fill="#ffffff" d="m497.15466 91.22346l-5.3125 0l0 -21.5l-24.0625 0l0 21.5l-5.3125 0l0 -45.687496l5.3125 0l0 19.437496l24.0625 0l0 -19.437496l5.3125 0l0 45.687496z" fill-rule="nonzero"></path><path fill="#000000" fill-opacity="0.0" d="m183.40158 68.28346l233.5433 0" fill-rule="nonzero"></path><path stroke="#595959" stroke-width="1.0" stroke-linejoin="round" stroke-linecap="butt" d="m183.40158 68.28346l227.5433 0" fill-rule="evenodd"></path><path fill="#595959" stroke="#595959" stroke-width="1.0" stroke-linecap="butt" d="m410.9449 69.935196l4.538086 -1.6517334l-4.538086 -1.6517334z" fill-rule="evenodd"></path><path fill="#b7b7b7" d="m776.18896 5.4173226l125.7323 0l0 125.73229l-125.7323 0z" fill-rule="nonzero"></path><path fill="#ffffff" d="m853.8051 91.22346l-5.6875 -14.53125l-18.3125 0l-5.625 14.53125l-5.375 0l18.0625 -45.874996l4.46875 0l17.96875 45.874996l-5.5 0zm-7.34375 -19.3125l-5.3125 -14.156246q-1.03125 -2.6875 -2.125 -6.59375q-0.6875 3.0 -1.96875 6.59375l-5.375 14.156246l14.78125 0z" fill-rule="nonzero"></path><path fill="#000000" fill-opacity="0.0" d="m542.66144 68.28346l233.54327 0" fill-rule="nonzero"></path><path stroke="#595959" stroke-width="1.0" stroke-linejoin="round" stroke-linecap="butt" d="m542.66144 68.28346l227.54327 0" fill-rule="evenodd"></path><path fill="#595959" stroke="#595959" stroke-width="1.0" stroke-linecap="butt" d="m770.2047 69.935196l4.538086 -1.6517334l-4.538086 -1.6517334z" fill-rule="evenodd"></path><path fill="#f1c232" d="m82.55118 181.6483l75.968506 0l0 75.96849l-75.968506 0z" fill-rule="nonzero"></path><path fill="#ffffff" d="m120.71512 234.03255l-3.796875 0l-15.59375 -23.96875l-0.15625 0q0.3125 4.21875 0.3125 7.734375l0 16.234375l-3.078125 0l0 -28.5625l3.75 0l15.578125 23.875l0.15625 0q-0.046875 -0.53125 -0.1875 -3.390625q-0.125 -2.859375 -0.09375 -4.09375l0 -16.390625l3.109375 0l0 28.5625zm23.96875 -7.59375q0 3.765625 -2.734375 5.875q-2.734375 2.109375 -7.421875 2.109375q-5.078125 0 -7.8125 -1.3125l0 -3.203125q1.75 0.75 3.8125 1.1875q2.078125 0.421875 4.109375 0.421875q3.328125 0 5.0 -1.265625q1.6875 -1.265625 1.6875 -3.5q0 -1.484375 -0.609375 -2.4375q-0.59375 -0.953125 -1.984375 -1.75q-1.390625 -0.796875 -4.25 -1.8125q-3.984375 -1.421875 -5.703125 -3.375q-1.703125 -1.953125 -1.703125 -5.109375q0 -3.296875 2.484375 -5.25q2.484375 -1.953125 6.5625 -1.953125q4.265625 0 7.828125 1.5625l-1.03125 2.890625q-3.53125 -1.484375 -6.875 -1.484375q-2.640625 0 -4.125 1.140625q-1.484375 1.125 -1.484375 3.140625q0 1.484375 0.546875 2.4375q0.546875 0.9375 1.84375 1.734375q1.3125 0.78125 3.984375 1.75q4.484375 1.59375 6.171875 3.4375q1.703125 1.828125 1.703125 4.765625z" fill-rule="nonzero"></path><path fill="#000000" fill-opacity="0.0" d="m98.99766 179.82912l0 -47.2126" fill-rule="nonzero"></path><path stroke="#595959" stroke-width="1.0" stroke-linejoin="round" stroke-linecap="butt" stroke-dasharray="4.0,3.0" d="m98.997665 179.82912l0 -41.2126" fill-rule="evenodd"></path><path fill="#595959" stroke="#595959" stroke-width="1.0" stroke-linecap="butt" d="m100.64939 138.61652l-1.6517258 -4.538101l-1.6517334 4.538101z" fill-rule="evenodd"></path><path fill="#000000" fill-opacity="0.0" d="m143.15514 134.43298l0 44.503937" fill-rule="nonzero"></path><path stroke="#595959" stroke-width="1.0" stroke-linejoin="round" stroke-linecap="butt" stroke-dasharray="4.0,3.0" d="m143.15514 134.43298l0 38.50392" fill-rule="evenodd"></path><path fill="#595959" stroke="#595959" stroke-width="1.0" stroke-linecap="butt" d="m141.5034 172.9369l1.6517334 4.538101l1.6517334 -4.538101z" fill-rule="evenodd"></path></g></svg>

